<svg id="Layer_1" data-name="Layer 1" xmlns="http://www.w3.org/2000/svg" viewBox="0 0 492.34 353.16"><defs><style>.cls-1,.cls-3{fill:#e5e5e5;}.cls-2,.cls-4,.cls-5{fill:#fff;}.cls-2,.cls-3,.cls-4,.cls-5,.cls-7,.cls-8{stroke:#000;}.cls-2,.cls-3,.cls-4,.cls-5,.cls-6,.cls-7,.cls-8{stroke-miterlimit:10;}.cls-4,.cls-6,.cls-8{stroke-linecap:round;}.cls-4,.cls-5,.cls-6{stroke-width:2px;}.cls-6{fill:none;stroke:#fff;}.cls-7,.cls-8{fill:#e6e6e6;}</style></defs><title>ball-save</title><path class="cls-1" d="M432.87,301.38a11.79,11.79,0,0,1-10.75-7,11.75,11.75,0,0,1-.24-9L473.78,150a11.79,11.79,0,0,1,22.72,2.91V153c.09,1.38.07,101.23.07,102.24a21.29,21.29,0,0,1-.66,5.89A11.85,11.85,0,0,1,492,266.3l-.1.07L439.6,299.3h0l-.31.19A11.81,11.81,0,0,1,432.87,301.38Z" transform="translate(-56.26 -141.33)"/><path d="M484.79,142.92A11.29,11.29,0,0,1,496,153h0V153c.07,1.4.08,67.48.07,102.25a20.28,20.28,0,0,1-.63,5.69,11.2,11.2,0,0,1-3.75,5l-.06.05-52,32.73h0l-.61.39a11.3,11.3,0,0,1-6.14,1.82,11.07,11.07,0,0,1-4-.75,11.28,11.28,0,0,1-6.5-14.58l51.9-135.38a11.35,11.35,0,0,1,10.54-7.25m0-1a12.28,12.28,0,0,0-11.47,7.89L421.42,285.2a12.27,12.27,0,0,0,18.13,14.7h0l52.72-33.19v0a12.15,12.15,0,0,0,4.08-5.41c.77-2,.7-6.06.7-6.06s0-101.47-.07-102.29v-.09h0a12.29,12.29,0,0,0-12.2-10.92Z" transform="translate(-56.26 -141.33)"/><path class="cls-2" d="M555.35,326.55" transform="translate(-56.26 -141.33)"/><path class="cls-2" d="M426.3,357.7" transform="translate(-56.26 -141.33)"/><path class="cls-2" d="M446.77,388.3" transform="translate(-56.26 -141.33)"/><path class="cls-3" d="M548.09,318.22V276a6,6,0,0,0-12,0,21,21,0,0,1-9.61,17.64L423.76,358.33a4,4,0,0,0,.87,7.13h0a21.52,21.52,0,0,1,14.18,22.14,4,4,0,0,0,6,3.78l96.23-60.59a15,15,0,0,0,7-12.69" transform="translate(-56.26 -141.33)"/><line class="cls-4" x1="486.06" y1="120.57" x2="486.06" y2="16.13"/><path class="cls-1" d="M172,300.79a11.81,11.81,0,0,1-6.41-1.9l-.31-.19h0l-52.34-32.95,0-.05a11.75,11.75,0,0,1-3.92-5.19,21.72,21.72,0,0,1-.67-5.87c0-1,0-100.87.08-102.26h0v-.08a11.76,11.76,0,0,1,7.49-9.69,11.57,11.57,0,0,1,4.22-.79,11.84,11.84,0,0,1,11,7.57L183,284.78A11.8,11.8,0,0,1,176.18,300,11.67,11.67,0,0,1,172,300.79Z" transform="translate(-56.26 -141.33)"/><path d="M120.06,141.33v1a11.35,11.35,0,0,1,10.54,7.25L182.5,285a11.3,11.3,0,0,1-6.5,14.58,11.15,11.15,0,0,1-4,.75,11.3,11.3,0,0,1-6.14-1.82l-.62-.38h0l-52-32.71-.09-.07a11.25,11.25,0,0,1-3.75-5,20.34,20.34,0,0,1-.64-5.71c0-34.75,0-100.83.07-102.19v-.07h0a11.28,11.28,0,0,1,11.21-10v-1m0,0a12.15,12.15,0,0,0-4.4.82,12.29,12.29,0,0,0-7.81,10.1h0v.1c-.09.82-.08,102.29-.08,102.29s-.06,4.06.7,6.06a12.25,12.25,0,0,0,4.09,5.41v0l52.72,33.19h0a12.27,12.27,0,0,0,18.14-14.7l-51.9-135.39a12.28,12.28,0,0,0-11.47-7.89Z" transform="translate(-56.26 -141.33)"/><path class="cls-2" d="M49.5,326" transform="translate(-56.26 -141.33)"/><path class="cls-2" d="M178.54,357.11" transform="translate(-56.26 -141.33)"/><path class="cls-2" d="M158.07,387.71" transform="translate(-56.26 -141.33)"/><path class="cls-1" d="M259.71,425.77a5.9,5.9,0,0,1-1.3-.15l-.1,0L184.24,402h0a15.91,15.91,0,0,1,3-30.67,16.29,16.29,0,0,1,2.41-.18,15.89,15.89,0,0,1,8.38,2.4l.47.29,64.67,41.36a5.84,5.84,0,0,1,2.31,3.84,5.91,5.91,0,0,1-4.93,6.72A5.69,5.69,0,0,1,259.71,425.77Z" transform="translate(-56.26 -141.33)"/><path d="M189.65,371.6a15.35,15.35,0,0,1,8.1,2.32l.32.19,64.79,41.44a5.39,5.39,0,0,1-2.4,9.66,4.65,4.65,0,0,1-.75.06,6.1,6.1,0,0,1-1.19-.13l-.07,0-74-23.62,0,0a15.41,15.41,0,0,1,5.28-29.88m0-1a16.06,16.06,0,0,0-2.49.19A16.4,16.4,0,0,0,184,402.42h0l74.25,23.7v0a6.46,6.46,0,0,0,1.4.16,5.46,5.46,0,0,0,.9-.07,6.4,6.4,0,0,0,2.82-11.48h0l-65.15-41.65h0a16.4,16.4,0,0,0-8.63-2.47Z" transform="translate(-56.26 -141.33)"/><circle class="cls-2" cx="134.04" cy="246.07" r="5.23"/><path class="cls-3" d="M56.76,317.63v-42.2a6,6,0,0,1,12,0,21,21,0,0,0,9.6,17.64l102.72,64.67a4,4,0,0,1-.86,7.13h0A21.5,21.5,0,0,0,166,387a4,4,0,0,1-6,3.78L63.77,330.2a15,15,0,0,1-7-12.69" transform="translate(-56.26 -141.33)"/><line class="cls-4" x1="6.27" y1="119.98" x2="6.27" y2="15.54"/><circle class="cls-5" cx="6.27" cy="5.36" r="3.31"/><circle cx="352.92" cy="203.9" r="16.5"/><path class="cls-6" d="M397.42,342.87a12,12,0,0,1,11.76-9.62,11.81,11.81,0,0,1,3.43.5" transform="translate(-56.26 -141.33)"/><circle class="cls-5" cx="486.06" cy="5.95" r="3.31"/><path class="cls-1" d="M415.14,403.48a16,16,0,0,1-8.65-2.54l0,0-63.59-44.77-.06-.06a5.8,5.8,0,0,1-1.35-1.64,5.9,5.9,0,0,1,6.86-8.46l72.25,26.66.26.1a15.9,15.9,0,0,1-5.68,30.74Z" transform="translate(-56.26 -141.33)"/><path d="M346.63,346.23h0a5.51,5.51,0,0,1,1.51.22l72,26.56.51.2a15.4,15.4,0,1,1-13.88,27.31l0,0-63.54-44.74-.07-.06a5.27,5.27,0,0,1-1.23-1.5,5.41,5.41,0,0,1,4.74-8m0-1a6.31,6.31,0,0,0-3,.78,6.34,6.34,0,0,0-1.12,10.45h0s63.63,44.81,63.73,44.87l0,0h0a16.41,16.41,0,0,0,23.32-21.6,16.31,16.31,0,0,0-8.54-7.48h0L348.46,345.5h0a6.64,6.64,0,0,0-1.83-.27Z" transform="translate(-56.26 -141.33)"/><circle class="cls-2" cx="358.15" cy="245.97" r="5.23"/><polygon class="cls-7" points="248.09 286.41 255.44 272.09 257.12 288.1 269.15 277.4 264.93 292.93 280.01 287.3 270.47 300.26 286.56 300.46 272.99 309.1 287.92 315.1 272.14 318.25 283.9 329.24 268.04 326.48 275.04 340.97 261.25 332.66 262.54 348.71 252.69 335.98 248.09 351.41 243.5 335.98 233.64 348.71 234.93 332.66 221.14 340.97 228.14 326.48 212.28 329.24 224.05 318.25 208.26 315.1 223.2 309.1 209.62 300.46 225.71 300.26 216.17 287.3 231.25 292.93 227.03 277.4 239.06 288.1 240.74 272.09 248.09 286.41"/><path d="M293.42,441.81a9.84,9.84,0,0,1,1.91-.17,3.35,3.35,0,0,1,2.22.59,1.69,1.69,0,0,1,.67,1.43,1.92,1.92,0,0,1-1.37,1.77v0a2.09,2.09,0,0,1,1.67,2,2.16,2.16,0,0,1-.69,1.62,4,4,0,0,1-2.79.76,11.75,11.75,0,0,1-1.62-.1Zm1,3.31h1c1.11,0,1.75-.58,1.75-1.36,0-.94-.72-1.32-1.77-1.32a4.12,4.12,0,0,0-.93.08Zm0,3.87a5.2,5.2,0,0,0,.88.05c1.08,0,2.07-.4,2.07-1.57s-.94-1.56-2.08-1.56h-.87Z" transform="translate(-56.26 -141.33)"/><path d="M301.23,447.24l-.84,2.54h-1.08l2.75-8.08h1.26l2.76,8.08H305l-.86-2.54Zm2.65-.81-.79-2.33c-.18-.53-.3-1-.42-1.48h0c-.12.48-.26,1-.41,1.47l-.79,2.34Z" transform="translate(-56.26 -141.33)"/><path d="M307.27,441.7h1v7.21h3.46v.87h-4.5Z" transform="translate(-56.26 -141.33)"/><path d="M312.93,441.7H314v7.21h3.45v.87h-4.5Z" transform="translate(-56.26 -141.33)"/><path d="M293.28,462.91a3.65,3.65,0,0,0,1.87.53c1.07,0,1.69-.56,1.69-1.38s-.43-1.19-1.52-1.6c-1.32-.47-2.14-1.16-2.14-2.3s1-2.19,2.62-2.19a3.59,3.59,0,0,1,1.78.4l-.29.85a3.11,3.11,0,0,0-1.53-.39c-1.1,0-1.52.66-1.52,1.21,0,.76.49,1.13,1.6,1.56,1.37.53,2.07,1.19,2.07,2.38s-.93,2.32-2.83,2.32a4.18,4.18,0,0,1-2.07-.51Z" transform="translate(-56.26 -141.33)"/><path d="M300.64,461.64l-.84,2.54h-1.07l2.74-8.08h1.26l2.76,8.08h-1.12l-.86-2.54Zm2.65-.81-.79-2.33c-.18-.53-.3-1-.42-1.48h0c-.12.48-.25,1-.41,1.47l-.79,2.34Z" transform="translate(-56.26 -141.33)"/><path d="M307.82,464.18l-2.64-8.08h1.13l1.26,4c.35,1.09.64,2.08.86,3h0c.22-.94.56-2,.92-3l1.37-4h1.11L309,464.18Z" transform="translate(-56.26 -141.33)"/><path d="M316.93,460.39h-3.15v2.92h3.51v.87h-4.55V456.1h4.37V457h-3.33v2.55h3.15Z" transform="translate(-56.26 -141.33)"/><polygon class="cls-8" points="315.68 132.6 320.46 126.55 322.73 133.92 329.37 130 328.82 137.69 336.42 136.43 333.13 143.41 340.68 144.98 335.09 150.3 341.56 154.49 334.43 157.43 338.95 163.68 331.24 163.84 333.19 171.3 325.94 168.67 325.07 176.33 319.26 171.26 315.68 178.09 312.1 171.26 306.29 176.33 305.42 168.67 298.17 171.3 300.13 163.84 292.42 163.68 296.93 157.43 289.8 154.49 296.27 150.3 290.68 144.98 298.23 143.41 294.94 136.43 302.55 137.69 302 130 308.64 133.92 310.91 126.55 315.68 132.6"/><path d="M369,280.7h5.32v6.35L373,298.72h-2.53L369,287.05Zm.12,20h5.08v4.91h-5.08Z" transform="translate(-56.26 -141.33)"/></svg>