<svg id="Layer_1" data-name="Layer 1" xmlns="http://www.w3.org/2000/svg" viewBox="0 0 492.34 361.43"><defs><style>.cls-1,.cls-3{fill:#e5e5e5;}.cls-2,.cls-4,.cls-5{fill:#fff;}.cls-2,.cls-3,.cls-4,.cls-5,.cls-8{stroke:#000;}.cls-10,.cls-11,.cls-2,.cls-3,.cls-4,.cls-5,.cls-6,.cls-7,.cls-8{stroke-miterlimit:10;}.cls-4,.cls-6,.cls-8{stroke-linecap:round;}.cls-4,.cls-5,.cls-6{stroke-width:2px;}.cls-10,.cls-11,.cls-6,.cls-7,.cls-8{fill:none;}.cls-6{stroke:#fff;}.cls-10,.cls-11,.cls-7{stroke:gray;}.cls-7{stroke-width:3px;stroke-dasharray:5 3;}.cls-10,.cls-11,.cls-8{stroke-width:4px;}.cls-9{fill:gray;}.cls-11{stroke-dasharray:6 6;}.cls-12{font-size:48px;font-family:OpenSans-Regular, Open Sans;}.cls-13{font-size:18px;font-family:OpenSans-Light, Open Sans;font-weight:300;}</style></defs><title>eye-on-ball</title><path class="cls-1" d="M432.87,301.38a11.79,11.79,0,0,1-10.75-7,11.75,11.75,0,0,1-.24-9L473.78,150a11.79,11.79,0,0,1,22.72,2.91V153c.09,1.38.07,101.23.07,102.24a21.29,21.29,0,0,1-.66,5.89A11.85,11.85,0,0,1,492,266.3l-.1.07L439.6,299.3h0l-.31.19A11.81,11.81,0,0,1,432.87,301.38Z" transform="translate(-56.26 -65.29)"/><path d="M484.79,142.92A11.29,11.29,0,0,1,496,153h0V153c.07,1.4.08,67.48.07,102.25a20.28,20.28,0,0,1-.63,5.69,11.2,11.2,0,0,1-3.75,5l-.06.05-52,32.73h0l-.61.39a11.3,11.3,0,0,1-6.14,1.82,11.07,11.07,0,0,1-4-.75,11.28,11.28,0,0,1-6.5-14.58l51.9-135.38a11.35,11.35,0,0,1,10.54-7.25m0-1a12.28,12.28,0,0,0-11.47,7.89L421.42,285.2a12.27,12.27,0,0,0,18.13,14.7h0l52.72-33.19v0a12.15,12.15,0,0,0,4.08-5.41c.77-2,.7-6.06.7-6.06s0-101.47-.07-102.29v-.09h0a12.29,12.29,0,0,0-12.2-10.92Z" transform="translate(-56.26 -65.29)"/><path class="cls-2" d="M555.35,326.55" transform="translate(-56.26 -65.29)"/><path class="cls-2" d="M426.3,357.7" transform="translate(-56.26 -65.29)"/><path class="cls-2" d="M446.77,388.3" transform="translate(-56.26 -65.29)"/><path class="cls-3" d="M548.09,318.22V276a6,6,0,0,0-12,0,21,21,0,0,1-9.61,17.64L423.76,358.33a4,4,0,0,0,.87,7.13h0a21.52,21.52,0,0,1,14.18,22.14,4,4,0,0,0,6,3.78l96.23-60.59a15,15,0,0,0,7-12.69" transform="translate(-56.26 -65.29)"/><line class="cls-4" x1="486.06" y1="196.61" x2="486.06" y2="92.17"/><path class="cls-1" d="M172,300.79a11.81,11.81,0,0,1-6.41-1.9l-.31-.19h0l-52.34-32.95,0-.05a11.75,11.75,0,0,1-3.92-5.19,21.72,21.72,0,0,1-.67-5.87c0-1,0-100.87.08-102.26h0v-.08a11.76,11.76,0,0,1,7.49-9.69,11.57,11.57,0,0,1,4.22-.79,11.84,11.84,0,0,1,11,7.57L183,284.78A11.8,11.8,0,0,1,176.18,300,11.67,11.67,0,0,1,172,300.79Z" transform="translate(-56.26 -65.29)"/><path d="M120.06,141.33v1a11.35,11.35,0,0,1,10.54,7.25L182.5,285a11.3,11.3,0,0,1-6.5,14.58,11.15,11.15,0,0,1-4,.75,11.3,11.3,0,0,1-6.14-1.82l-.62-.38h0l-52-32.71-.09-.07a11.25,11.25,0,0,1-3.75-5,20.34,20.34,0,0,1-.64-5.71c0-34.75,0-100.83.07-102.19v-.07h0a11.28,11.28,0,0,1,11.21-10v-1m0,0a12.15,12.15,0,0,0-4.4.82,12.29,12.29,0,0,0-7.81,10.1h0v.1c-.09.82-.08,102.29-.08,102.29s-.06,4.06.7,6.06a12.25,12.25,0,0,0,4.09,5.41v0l52.72,33.19h0a12.27,12.27,0,0,0,18.14-14.7l-51.9-135.39a12.28,12.28,0,0,0-11.47-7.89Z" transform="translate(-56.26 -65.29)"/><path class="cls-2" d="M49.5,326" transform="translate(-56.26 -65.29)"/><path class="cls-2" d="M178.54,357.11" transform="translate(-56.26 -65.29)"/><path class="cls-2" d="M158.07,387.71" transform="translate(-56.26 -65.29)"/><path class="cls-1" d="M259.71,425.77a5.9,5.9,0,0,1-1.3-.15l-.1,0L184.24,402h0a15.91,15.91,0,0,1,3-30.67,16.29,16.29,0,0,1,2.41-.18,15.89,15.89,0,0,1,8.38,2.4l.47.29,64.67,41.36a5.84,5.84,0,0,1,2.31,3.84,5.91,5.91,0,0,1-4.93,6.72A5.69,5.69,0,0,1,259.71,425.77Z" transform="translate(-56.26 -65.29)"/><path d="M189.65,371.6a15.35,15.35,0,0,1,8.1,2.32l.32.19,64.79,41.44a5.39,5.39,0,0,1-2.4,9.66,4.65,4.65,0,0,1-.75.06,6.1,6.1,0,0,1-1.19-.13l-.07,0-74-23.62,0,0a15.41,15.41,0,0,1,5.28-29.88m0-1a16.06,16.06,0,0,0-2.49.19A16.4,16.4,0,0,0,184,402.42h0l74.25,23.7v0a6.46,6.46,0,0,0,1.4.16,5.46,5.46,0,0,0,.9-.07,6.4,6.4,0,0,0,2.82-11.48h0l-65.15-41.65h0a16.4,16.4,0,0,0-8.63-2.47Z" transform="translate(-56.26 -65.29)"/><circle class="cls-2" cx="134.04" cy="322.11" r="5.23"/><path class="cls-3" d="M56.76,317.63v-42.2a6,6,0,0,1,12,0,21,21,0,0,0,9.6,17.64l102.72,64.67a4,4,0,0,1-.86,7.13h0A21.5,21.5,0,0,0,166,387a4,4,0,0,1-6,3.78L63.77,330.2a15,15,0,0,1-7-12.69" transform="translate(-56.26 -65.29)"/><line class="cls-4" x1="6.27" y1="196.02" x2="6.27" y2="91.58"/><path class="cls-1" d="M345,426.22a5.66,5.66,0,0,1-.82-.06,5.89,5.89,0,0,1-2.6-10.58L406.5,374.1l.24-.15a15.86,15.86,0,0,1,8.37-2.4,15.18,15.18,0,0,1,2.42.19,15.9,15.9,0,0,1,3,30.66l-.07,0-74.07,23.63-.08,0A6.46,6.46,0,0,1,345,426.22Z" transform="translate(-56.26 -65.29)"/><path d="M415.11,372.05a15.4,15.4,0,0,1,5.27,29.88h0c-1.91.62-70.13,22.39-74,23.63l-.08,0a5.55,5.55,0,0,1-1.19.13,4.77,4.77,0,0,1-.76-.06,5.32,5.32,0,0,1-3.53-2.13,5.38,5.38,0,0,1-1-4,5.31,5.31,0,0,1,2.11-3.52l64.64-41.33.47-.29a15.4,15.4,0,0,1,8.11-2.33m0-1a16.3,16.3,0,0,0-8.63,2.48h0l-65.15,41.66h0a6.39,6.39,0,0,0,2.82,11.47,5.67,5.67,0,0,0,.91.07,6.59,6.59,0,0,0,1.4-.15h0l74.25-23.7h0a16.41,16.41,0,0,0-5.62-31.82Z" transform="translate(-56.26 -65.29)"/><circle class="cls-2" cx="358.21" cy="322.56" r="5.23"/><circle class="cls-5" cx="6.27" cy="81.4" r="3.31"/><circle cx="196.59" cy="321.19" r="16.5"/><path class="cls-6" d="M241.09,384.12a12,12,0,0,1,11.76-9.62,11.81,11.81,0,0,1,3.43.5" transform="translate(-56.26 -65.29)"/><circle class="cls-5" cx="486.06" cy="81.99" r="3.31"/><circle class="cls-7" cx="144.92" cy="286.56" r="16.5"/><path d="M255.18,267.81a29.71,29.71,0,0,0-51,0,4.37,4.37,0,0,0,0,4.42,29.71,29.71,0,0,0,51,0,4.32,4.32,0,0,0,0-4.42Zm-25.5,14.54A25.21,25.21,0,0,1,207.92,270a25.18,25.18,0,0,1,19.6-12.24,5.08,5.08,0,1,1-8.72,3.54h0A12.33,12.33,0,1,0,242,267.12a12.22,12.22,0,0,0-2.53-7.48,25.06,25.06,0,0,1,12,10.38A25.21,25.21,0,0,1,229.68,282.35Z" transform="translate(-56.26 -65.29)"/><line class="cls-8" x1="178.38" y1="227.53" x2="190.15" y2="287.98"/><polygon points="181.81 283.88 189.68 285.56 196.35 281.05 192.43 299.7 181.81 283.88"/><line class="cls-7" x1="163.38" y1="297.78" x2="177.13" y2="307.65"/><polygon class="cls-9" points="172.74 309 176.14 306.93 177.01 303.05 181.93 311.09 172.74 309"/><line class="cls-10" x1="207.17" y1="301.58" x2="329.53" y2="64.56"/><polygon class="cls-9" points="333.54 72.95 328.4 66.76 320.38 66.16 335.01 53.95 333.54 72.95"/><line class="cls-11" x1="256.63" y1="162.36" x2="297.5" y2="55.13"/><polygon class="cls-9" points="302.42 63.02 296.62 57.44 288.58 57.74 301.76 43.98 302.42 63.02"/><line class="cls-11" x1="291.12" y1="177.77" x2="358.69" y2="79.11"/><polygon class="cls-9" points="361.63 87.93 357.29 81.14 349.4 79.56 365.44 69.26 361.63 87.93"/><text class="cls-12" transform="translate(334.36 41.22)">$</text><text class="cls-13" transform="translate(277.55 15.42)">too<tspan x="-7.06" y="18">early</tspan></text><text class="cls-13" transform="translate(376.96 50.01)">too <tspan x="-1.2" y="18">late</tspan></text></svg>