<svg id="Layer_1" data-name="Layer 1" xmlns="http://www.w3.org/2000/svg" viewBox="0 0 469.24 360.38"><defs><style>.cls-1,.cls-3{fill:#e5e5e5;}.cls-2,.cls-4,.cls-5{fill:#fff;}.cls-2,.cls-3,.cls-4,.cls-5,.cls-8{stroke:#000;}.cls-2,.cls-3,.cls-4,.cls-5,.cls-6,.cls-7,.cls-8{stroke-miterlimit:10;}.cls-4,.cls-7{stroke-linecap:round;}.cls-4,.cls-5,.cls-6,.cls-7{stroke-width:2px;}.cls-6,.cls-7,.cls-8{fill:none;}.cls-6{stroke:gray;stroke-dasharray:3;}.cls-7{stroke:#fff;}.cls-8{stroke-width:4px;stroke-dasharray:6 6;}</style></defs><title>knock</title><path class="cls-1" d="M410.78,303.66a9.6,9.6,0,0,1-3.46-.64,9.73,9.73,0,0,1-5.59-12.54L444.85,178a9.7,9.7,0,0,1,18.7,2.4v.07c.06,1.22.06,84.08.06,84.92a18.13,18.13,0,0,1-.55,4.86,9.72,9.72,0,0,1-3.23,4.27l-.09.07-43.4,27.32h0l-.29.17A9.73,9.73,0,0,1,410.78,303.66Z" transform="translate(-97.85 -47.49)"/><path d="M453.91,172.29a9.19,9.19,0,0,1,9.14,8.16h0v.05c.05,1.23.06,56.08.06,84.93a16.66,16.66,0,0,1-.52,4.66,9.15,9.15,0,0,1-3.06,4.05l-.05,0L416.41,301.3h0l-.61.39a9.22,9.22,0,0,1-5,1.48,9,9,0,0,1-3.28-.61,9.21,9.21,0,0,1-5.3-11.89L445.31,178.2a9.27,9.27,0,0,1,8.6-5.91m0-1a10.21,10.21,0,0,0-9.53,6.55L401.27,290.3a10.2,10.2,0,0,0,15.06,12.22h0L460.13,275v0a10.09,10.09,0,0,0,3.39-4.49,18.23,18.23,0,0,0,.59-5s0-84.28-.07-85v-.08h0a10.22,10.22,0,0,0-10.14-9.07Z" transform="translate(-97.85 -47.49)"/><path class="cls-2" d="M512.52,324.66" transform="translate(-97.85 -47.49)"/><path class="cls-2" d="M405.33,350.53" transform="translate(-97.85 -47.49)"/><path class="cls-2" d="M422.33,376" transform="translate(-97.85 -47.49)"/><path class="cls-3" d="M506.49,317.74V282.68a5,5,0,0,0-10,0,17.42,17.42,0,0,1-8,14.66l-85.32,53.72a3.32,3.32,0,0,0,.71,5.91h0a17.87,17.87,0,0,1,11.78,18.4,3.32,3.32,0,0,0,5,3.14l79.94-50.33a12.44,12.44,0,0,0,5.82-10.55" transform="translate(-97.85 -47.49)"/><line class="cls-4" x1="403.85" y1="223.47" x2="403.85" y2="136.71"/><path class="cls-1" d="M194.07,303.17a9.79,9.79,0,0,1-5.29-1.56l-.31-.2h0l-43.41-27.33,0,0a9.65,9.65,0,0,1-3.23-4.27,17.68,17.68,0,0,1-.55-4.85c0-.85,0-83.71.06-84.94v-.06a9.69,9.69,0,0,1,6.16-8,9.88,9.88,0,0,1,3.48-.64,9.76,9.76,0,0,1,9.06,6.23L203.11,290a9.72,9.72,0,0,1-5.59,12.54A9.5,9.5,0,0,1,194.07,303.17Z" transform="translate(-97.85 -47.49)"/><path d="M150.94,171.8h0a9.24,9.24,0,0,1,8.59,5.91l43.12,112.46a9.22,9.22,0,0,1-5.31,11.89,9,9,0,0,1-3.27.61,9.2,9.2,0,0,1-5-1.48l-.62-.39h0l-43.05-27.1-.07-.06a9.07,9.07,0,0,1-3.06-4,16.72,16.72,0,0,1-.52-4.68c0-28.83,0-83.68.06-84.87V180h0a9.2,9.2,0,0,1,5.85-7.57,9.1,9.1,0,0,1,3.3-.61m0-1a10.21,10.21,0,0,0-10.14,9.07h0V180c-.07.69-.06,85-.06,85a18.49,18.49,0,0,0,.58,5,10.11,10.11,0,0,0,3.4,4.49v0L188.51,302h0a10.27,10.27,0,0,0,5.56,1.64,10,10,0,0,0,3.63-.67,10.21,10.21,0,0,0,5.88-13.19L160.47,177.35a10.21,10.21,0,0,0-9.53-6.55Z" transform="translate(-97.85 -47.49)"/><path class="cls-2" d="M92.32,324.17" transform="translate(-97.85 -47.49)"/><path class="cls-2" d="M199.52,350" transform="translate(-97.85 -47.49)"/><path class="cls-2" d="M182.51,375.46" transform="translate(-97.85 -47.49)"/><path class="cls-1" d="M266.94,407a4.92,4.92,0,0,1-1.06-.12l-.08,0-61.52-19.63h0a13.13,13.13,0,0,1,2.5-25.31,13.33,13.33,0,0,1,2-.15,13.07,13.07,0,0,1,6.91,2l.36.22,53.75,34.37a4.81,4.81,0,0,1-2.14,8.62A5.19,5.19,0,0,1,266.94,407Z" transform="translate(-97.85 -47.49)"/><path d="M208.74,362.25a12.58,12.58,0,0,1,6.65,1.9l.27.17,53.81,34.4a4.31,4.31,0,0,1,1.68,2.81,4.2,4.2,0,0,1-.79,3.2,4.25,4.25,0,0,1-2.82,1.71,3.94,3.94,0,0,1-.6.05,4.47,4.47,0,0,1-.95-.11h-.05l-61.48-19.62h0a12.66,12.66,0,0,1-8.17-10,12.59,12.59,0,0,1,12.49-14.53h0m0-1a14.62,14.62,0,0,0-2.07.15,13.63,13.63,0,0,0-2.59,26.28h0l61.67,19.68h0a5.65,5.65,0,0,0,1.16.13,4.74,4.74,0,0,0,.75-.06A5.31,5.31,0,0,0,270,397.9h0l-54.11-34.6h0a13.53,13.53,0,0,0-7.17-2.05Z" transform="translate(-97.85 -47.49)"/><circle class="cls-2" cx="111.43" cy="327.72" r="4.34"/><path class="cls-3" d="M98.35,317.25V282.19a5,5,0,0,1,10,0,17.44,17.44,0,0,0,8,14.66l85.33,53.72a3.32,3.32,0,0,1-.72,5.91h0a17.88,17.88,0,0,0-11.78,18.4,3.32,3.32,0,0,1-5,3.14l-79.94-50.33a12.45,12.45,0,0,1-5.83-10.55" transform="translate(-97.85 -47.49)"/><line class="cls-4" x1="5.3" y1="222.98" x2="5.3" y2="136.22"/><path class="cls-1" d="M337.83,407.37a5.31,5.31,0,0,1-.68-.05,4.82,4.82,0,0,1-2.12-8.64l53.87-34.44.22-.14a13.16,13.16,0,0,1,6.91-2,13.33,13.33,0,0,1,2,.15,13.12,13.12,0,0,1,2.5,25.31L339,407.24h-.07A4.92,4.92,0,0,1,337.83,407.37Z" transform="translate(-97.85 -47.49)"/><path d="M396,362.62a12.64,12.64,0,0,1,12.49,14.54,12.63,12.63,0,0,1-8.17,9.95h0l-61.49,19.63h-.06a4.47,4.47,0,0,1-.95.11,4,4,0,0,1-.6-.05,4.31,4.31,0,0,1-3.61-4.91,4.26,4.26,0,0,1,1.69-2.81L389,364.77l.38-.24a12.59,12.59,0,0,1,6.65-1.91m0-1a13.56,13.56,0,0,0-7.17,2.06h0l-54.11,34.61h0a5.25,5.25,0,0,0-2.11,3.47,5.32,5.32,0,0,0,4.45,6.06,4.74,4.74,0,0,0,.75.06,5.5,5.5,0,0,0,1.16-.13h0l61.68-19.69h0a13.62,13.62,0,0,0-2.6-26.27,13.31,13.31,0,0,0-2.07-.16Z" transform="translate(-97.85 -47.49)"/><circle class="cls-2" cx="297.64" cy="328.09" r="4.34"/><circle class="cls-5" cx="5.3" cy="127.76" r="2.75"/><circle class="cls-5" cx="403.85" cy="128.25" r="2.75"/><path d="M541.6,236.63l-9.72-4.73,9.73-4.73a1.09,1.09,0,0,0,.48-1.47l-1-2a1.09,1.09,0,0,0-1.47-.49l-12.77,6.22-12.78-6.22a1.1,1.1,0,0,0-1.47.49l-1,2a1.1,1.1,0,0,0,.49,1.47l9.72,4.73-9.72,4.73a1.1,1.1,0,0,0-.49,1.47l1,2a1.1,1.1,0,0,0,1.47.49l12.78-6.22,12.77,6.22a1.09,1.09,0,0,0,1.47-.49l1-2A1.08,1.08,0,0,0,541.6,236.63Zm-19.8-14.78-.38,1.78a1.34,1.34,0,0,0,1.13,1.7h8.64a1.33,1.33,0,0,0,1.12-1.7l-.37-1.78a8.59,8.59,0,0,0,4.79-7.48c0-4.84-4.42-8.77-9.86-8.77s-9.87,3.93-9.87,8.77A8.6,8.6,0,0,0,521.8,221.85Zm8.9-8.58a2.2,2.2,0,1,1-2.19,2.19A2.19,2.19,0,0,1,530.7,213.27Zm-7.67,0a2.2,2.2,0,1,1-2.19,2.19A2.19,2.19,0,0,1,523,213.27Z" transform="translate(-97.85 -47.49)"/><line class="cls-4" x1="453.85" y1="273.47" x2="453.85" y2="106.71"/><circle class="cls-5" cx="453.85" cy="98.25" r="2.75"/><circle class="cls-6" cx="453.85" cy="98.25" r="14.4"/><circle class="cls-6" cx="403.85" cy="128.25" r="14.4"/><circle cx="333.46" cy="53.76" r="16.5"/><path class="cls-7" d="M419.56,98.89a12,12,0,0,1,11.76-9.63,12.16,12.16,0,0,1,3.43.5" transform="translate(-97.85 -47.49)"/><path class="cls-8" d="M246.22,51.51s84.79-13.46,151.61,29" transform="translate(-97.85 -47.49)"/><polygon points="291.12 36.13 297.88 31.76 299.42 23.86 309.81 39.84 291.12 36.13"/></svg>