<svg id="Layer_1" data-name="Layer 1" xmlns="http://www.w3.org/2000/svg" viewBox="0 0 117.37 128.32"><defs><style>.cls-1,.cls-2{fill:none;stroke-miterlimit:10;}.cls-1{stroke:#fff;stroke-linecap:round;stroke-width:2px;}.cls-2{stroke:#000;stroke-width:4px;stroke-dasharray:5 3;}</style></defs><title>multi-ball</title><circle cx="100.87" cy="23.59" r="16.5"/><path class="cls-1" d="M336.34,221.38a12,12,0,0,1,11.75-9.63,11.83,11.83,0,0,1,3.44.5" transform="translate(-247.22 -200.15)"/><line class="cls-2" x1="84.37" y1="40.09" x2="28.41" y2="99.29"/><polygon points="26.89 90.12 30.11 97.49 37.65 100.29 20.21 107.96 26.89 90.12"/><circle cx="89.12" cy="93.08" r="16.5"/><path class="cls-1" d="M324.59,290.86a12,12,0,0,1,11.75-9.62,12.15,12.15,0,0,1,3.43.49" transform="translate(-247.22 -200.15)"/><circle cx="16.5" cy="60.08" r="16.5"/><path class="cls-1" d="M252,257.86a12,12,0,0,1,11.75-9.62,12.1,12.1,0,0,1,3.43.49" transform="translate(-247.22 -200.15)"/><line class="cls-2" x1="37" y1="76.2" x2="86.32" y2="120.35"/><polygon points="77.2 122.12 84.48 118.7 87.08 111.09 95.22 128.32 77.2 122.12"/><line class="cls-2" x1="78.12" y1="74.03" x2="52.04" y2="11.03"/><polygon points="61.03 13.39 52.99 13.31 47.35 19.05 47.48 0 61.03 13.39"/></svg>