<svg id="Layer_1" data-name="Layer 1" xmlns="http://www.w3.org/2000/svg" viewBox="0 0 492.34 285.23"><defs><style>.cls-1{fill:gray;}.cls-2,.cls-5{fill:#e5e5e5;}.cls-10,.cls-11,.cls-3,.cls-8,.cls-9{fill:none;}.cls-10,.cls-3{stroke:gray;}.cls-10,.cls-11,.cls-3,.cls-4,.cls-5,.cls-6,.cls-7,.cls-8,.cls-9{stroke-miterlimit:10;}.cls-11,.cls-3,.cls-9{stroke-width:4px;}.cls-4,.cls-6,.cls-7{fill:#fff;}.cls-11,.cls-4,.cls-5,.cls-6,.cls-7,.cls-9{stroke:#000;}.cls-6,.cls-8,.cls-9{stroke-linecap:round;}.cls-6,.cls-7,.cls-8{stroke-width:2px;}.cls-8{stroke:#fff;}.cls-10{stroke-width:3px;stroke-dasharray:5 3;}.cls-11{stroke-dasharray:6 3;}</style></defs><title>post-pass</title><path class="cls-1" d="M262.39,354.49a6.33,6.33,0,0,0-1,.07h0l-3.93.86.64,2.93,3.82-.84.44,0v-3Zm-7.83,1.58-4.88,1.07.64,2.93L255.2,359l-.64-2.93Zm-7.81,1.72-4.89,1.07.65,2.93,4.88-1.07-.64-2.93Zm-7.82,1.72-4.88,1.07.64,2.93,4.89-1.07-.65-2.93Zm-7.81,1.71-4.88,1.08.64,2.93,4.88-1.08-.64-2.93Zm-7.81,1.72L218.42,364l.65,2.93,4.88-1.08-.64-2.93Zm-7.82,1.72-4.88,1.07.64,2.93,4.89-1.07-.65-2.93Zm-7.81,1.72-4.88,1.07.64,2.93,4.88-1.07-.64-2.93Zm-7.81,1.72L195,369.17l.65,2.93,4.88-1.07-.64-2.93Zm-7.82,1.72-4.88,1.07.64,2.93,4.89-1.07-.65-2.93Zm-7.77,1.82-.58.21h-.3l-.07,0h0c-.49.21-1,.44-1.45.69h0l-.06,0h0l0,0h-.11l0,0h-.31l0,0h0l0,0h0l-.06,0h0a13.38,13.38,0,0,0-1.27.85l1.78,2.41a13.61,13.61,0,0,1,3.6-1.89l-1-2.84ZM177.63,376c-.19.21-.38.42-.57.65h0l0,0h0l0,0h0l0,0h-.16l0,0h0v0h-.05l0,0h0l0,0h0v0h0l0,0h0l0,0h0v0h-.18l0,0h-.07l0,.05h0l-.06.08h0a16,16,0,0,0-1.24,2.15l2.71,1.3a13.21,13.21,0,0,1,1.29-2.17,14.45,14.45,0,0,1,1-1.2l-2.2-2Zm-3.84,6.92a16.64,16.64,0,0,0-.56,4h0v0h0v0h0v0h0v0h0v.05h0c0,.22,0,.44,0,.66l3-.13a13.44,13.44,0,0,1,.44-4l-2.9-.78Zm2.78,7.25-2.92.67a16,16,0,0,0,.76,2.44h0l0,0h0v0h0v0h0v0h0v0h0v0h.18v0h0v0h0l0,0h0a15.79,15.79,0,0,0,.74,1.41l2.59-1.51a13.51,13.51,0,0,1-1.5-3.79Zm2.92,5.77-2.26,2c.05.07.11.13.17.2h0l0,0h.14l0,0h0a16.39,16.39,0,0,0,2.05,1.84h0l0,0h.1c.36.26.72.51,1.09.74l1.58-2.55c-.3-.19-.61-.4-.9-.61a13.79,13.79,0,0,1-2.21-2Zm5.3,3.74-1.09,2.79a16.26,16.26,0,0,0,4.87,1.08l.19-3a13.44,13.44,0,0,1-4-.87Zm10.34-.28a13.29,13.29,0,0,1-3.92,1.09l.35,3a16.31,16.31,0,0,0,4.12-1.05h.39l.29-.13-1.23-2.74Zm7-3.58-4.45,2.29,1.38,2.67,2.63-1.36,0,0h0l1.74-.9-1.37-2.67Zm7.11-3.67-4.45,2.29,1.38,2.67,3.05-1.57h0l0,0,1.34-.69-1.37-2.67Zm7.11-3.67-4.45,2.3,1.38,2.66,2.6-1.34,1.84-.95-1.37-2.67Zm7.11-3.67-4.45,2.3,1.38,2.66,3.17-1.63,0,0,.06,0h0l1.15-.6-1.37-2.67Zm7.1-3.67-4.44,2.3,1.38,2.66.87-.45,3.57-1.84-1.38-2.67Zm7.11-3.67-4.44,2.3,1.38,2.66.64-.33,3.8-2-1.38-2.67Zm7.11-3.67-4.44,2.3,1.38,2.66,3.49-1.8.95-.49-1.38-2.67Zm7.11-3.67-4.44,2.3,1.37,2.66,2.1-1.08,2.35-1.21-1.38-2.67Zm7.11-3.67-4.44,2.3,1.38,2.66.48-.25h0l4-2L259,366.42Zm6-3.33a3.46,3.46,0,0,1-.73.62l-2.59,1.34,1.38,2.66c1.29-.66,2.18-1.13,2.59-1.33h.71l0,0h0a5.78,5.78,0,0,0,.59-.52h0l0,0h.15l.11-.11-2.25-2Zm2.93-5.47-2.58,1.53a3.43,3.43,0,0,1,.37,2.56l2.91.74c0-.07,0-.15.05-.22h.08l0-.24h0v-.38h0v0h0v0h0v0h0a6.37,6.37,0,0,0-.88-2.93Zm-5.5-3.13v3a3.33,3.33,0,0,1,1.82.53l1.61-2.53A6.1,6.1,0,0,0,265,355h0l-.05,0h-.08l-.05,0h-.09l0,0h-.1l0,0h-2.11Z" transform="translate(-56.26 -141.33)"/><path class="cls-1" d="M190.39,381.73a5.22,5.22,0,0,0-4.22,2.13l2.42,1.78a2.2,2.2,0,0,1,1.8-.91v-3Zm-5.23,5a2.43,2.43,0,0,0,0,.27h0v0h0v0h0v0h0v0h0v0h0v0h0v0h0v0h0v.06h0v0h0a6.6,6.6,0,0,0,.17.77h0a.56.56,0,0,1,0,.12h0v0h0v0h0v0h0v0h.32v0h0v0h0v0h0a5.08,5.08,0,0,0,1.38,1.59l1.83-2.38a2.21,2.21,0,0,1-.87-1.86l-3-.12Zm6.93,1.65a2.24,2.24,0,0,1-1.71.79h-.18l-.24,3h1.17a5.22,5.22,0,0,0,3.27-1.83l-2.31-1.91Zm1.8-5.31-2,2.23a2.23,2.23,0,0,1,.71,1.92l3,.36c0-.19,0-.37,0-.55h0v0h0v0h0v0h0v0h0v0h0a5.14,5.14,0,0,0-.31-1.51h0v0h0v0h0v0h0v0h0v0h0v0h0v0h0v0H195v0h0v0h0v0h0v0h0l-.06-.09h0l-.07-.11h0v0h0l-.12-.17h0l-.15-.21h0l0,0h0v0h0l0,0h0v0h0v0H194l0,0h0l-.07-.07Zm-3.5-1.35h0v3h0l.35,0,.48-3a4.73,4.73,0,0,0-.83-.07Z" transform="translate(-56.26 -141.33)"/><path class="cls-2" d="M432.87,301.38a11.79,11.79,0,0,1-10.75-7,11.75,11.75,0,0,1-.24-9L473.78,150a11.79,11.79,0,0,1,22.72,2.91V153c.09,1.38.07,101.23.07,102.24a21.29,21.29,0,0,1-.66,5.89A11.85,11.85,0,0,1,492,266.3l-.1.07L439.6,299.3h0l-.31.19A11.81,11.81,0,0,1,432.87,301.38Z" transform="translate(-56.26 -141.33)"/><path d="M484.79,142.92A11.29,11.29,0,0,1,496,153h0V153c.07,1.4.08,67.48.07,102.25a20.28,20.28,0,0,1-.63,5.69,11.2,11.2,0,0,1-3.75,5l-.06.05-52,32.73h0l-.61.39a11.3,11.3,0,0,1-6.14,1.82,11.07,11.07,0,0,1-4-.75,11.28,11.28,0,0,1-6.5-14.58l51.9-135.38a11.35,11.35,0,0,1,10.54-7.25m0-1a12.28,12.28,0,0,0-11.47,7.89L421.42,285.2a12.27,12.27,0,0,0,18.13,14.7h0l52.72-33.19v0a12.15,12.15,0,0,0,4.08-5.41c.77-2,.7-6.06.7-6.06s0-101.47-.07-102.29v-.09h0a12.29,12.29,0,0,0-12.2-10.92Z" transform="translate(-56.26 -141.33)"/><path class="cls-3" d="M275,341.84a83.07,83.07,0,0,1,7.5,16.87" transform="translate(-56.26 -141.33)"/><polygon class="cls-1" points="216.46 206.32 219.48 201.95 224.72 201.1 214.4 193.92 216.46 206.32"/><polygon class="cls-1" points="220.4 215.16 225.66 215.84 229.81 212.52 228.23 225 220.4 215.16"/><path class="cls-4" d="M555.35,326.55" transform="translate(-56.26 -141.33)"/><path class="cls-4" d="M426.3,357.7" transform="translate(-56.26 -141.33)"/><path class="cls-4" d="M446.77,388.3" transform="translate(-56.26 -141.33)"/><path class="cls-5" d="M548.09,318.22V276a6,6,0,0,0-12,0,21,21,0,0,1-9.61,17.64L423.76,358.33a4,4,0,0,0,.87,7.13h0a21.52,21.52,0,0,1,14.18,22.14,4,4,0,0,0,6,3.78l96.23-60.59a15,15,0,0,0,7-12.69" transform="translate(-56.26 -141.33)"/><line class="cls-6" x1="486.06" y1="120.57" x2="486.06" y2="16.13"/><path class="cls-2" d="M172,300.79a11.81,11.81,0,0,1-6.41-1.9l-.31-.19h0l-52.34-32.95,0-.05a11.75,11.75,0,0,1-3.92-5.19,21.72,21.72,0,0,1-.67-5.87c0-1,0-100.87.08-102.26h0v-.08a11.76,11.76,0,0,1,7.49-9.69,11.57,11.57,0,0,1,4.22-.79,11.84,11.84,0,0,1,11,7.57L183,284.78A11.8,11.8,0,0,1,176.18,300,11.67,11.67,0,0,1,172,300.79Z" transform="translate(-56.26 -141.33)"/><path d="M120.06,141.33v1a11.35,11.35,0,0,1,10.54,7.25L182.5,285a11.3,11.3,0,0,1-6.5,14.58,11.15,11.15,0,0,1-4,.75,11.3,11.3,0,0,1-6.14-1.82l-.62-.38h0l-52-32.71-.09-.07a11.25,11.25,0,0,1-3.75-5,20.34,20.34,0,0,1-.64-5.71c0-34.75,0-100.83.07-102.19v-.07h0a11.28,11.28,0,0,1,11.21-10v-1m0,0a12.15,12.15,0,0,0-4.4.82,12.29,12.29,0,0,0-7.81,10.1h0v.1c-.09.82-.08,102.29-.08,102.29s-.06,4.06.7,6.06a12.25,12.25,0,0,0,4.09,5.41v0l52.72,33.19h0a12.27,12.27,0,0,0,18.14-14.7l-51.9-135.39a12.28,12.28,0,0,0-11.47-7.89Z" transform="translate(-56.26 -141.33)"/><path class="cls-4" d="M49.5,326" transform="translate(-56.26 -141.33)"/><path class="cls-4" d="M178.54,357.11" transform="translate(-56.26 -141.33)"/><path class="cls-4" d="M158.07,387.71" transform="translate(-56.26 -141.33)"/><path class="cls-5" d="M56.76,317.63v-42.2a6,6,0,0,1,12,0,21,21,0,0,0,9.6,17.64l102.72,64.67a4,4,0,0,1-.86,7.13h0A21.5,21.5,0,0,0,166,387a4,4,0,0,1-6,3.78L63.77,330.2a15,15,0,0,1-7-12.69" transform="translate(-56.26 -141.33)"/><line class="cls-6" x1="6.27" y1="119.98" x2="6.27" y2="15.54"/><path class="cls-1" d="M415.11,371.05h-1.62a17.26,17.26,0,0,0-3.3.68l.91,2.86a13.32,13.32,0,0,1,4-.62v-3ZM407.43,373c-.33.17-.64.35-.95.55h0l-.05,0h0l-2.49,1.59h0l-.74.47,1.62,2.52,2.79-1.78.46-.28c.25-.16.52-.31.78-.45L407.43,373Zm-6.76,4.25-.37.24h0l0,0h-.06l-3.75,2.4,1.62,2.52,4.21-2.69-1.61-2.53Zm-6.74,4.31-3,1.93h0l-1.16.74,1.62,2.52,4.21-2.69-1.61-2.53Zm-6.74,4.31-4.22,2.7,1.62,2.52,4.21-2.69-1.61-2.53Zm-6.74,4.31L378,391.71h0l-1.74,1.12,1.62,2.52,4.21-2.69-1.61-2.53Zm-6.74,4.31-.17.11h-.2l-3.85,2.46,1.62,2.52,4.21-2.69-1.61-2.53ZM367,398.78l-4.22,2.7,1.62,2.52,4.21-2.69L367,398.78Zm-6.74,4.31-1.52,1h0l0,0h0L356,405.79l1.62,2.52,4.21-2.69-1.61-2.53Zm-6.74,4.31-4.22,2.7,1.62,2.52,4.21-2.69-1.61-2.53Zm-6.74,4.31-4.22,2.69,1.62,2.53,4.21-2.69-1.61-2.53Zm-6.56,4.54a6.31,6.31,0,0,0-1.37,2.93h0v0h0v0h0v0h0v0h-.07a7.36,7.36,0,0,0,0,1.15l3-.26a3.22,3.22,0,0,1,0-.82,3.45,3.45,0,0,1,.74-1.65l-2.3-1.92Zm2,5.88-2.54,1.59a6,6,0,0,0,.86,1.1h0l0,0h0l0,0h1.77a7.31,7.31,0,0,0,1.27.44l.68-2.92a3.4,3.4,0,0,1-2.1-1.51Zm8.23,0-4.77,1.52.91,2.86,1.17-.37h0l3.59-1.14-.91-2.86Zm7.62-2.43-4.76,1.52.91,2.86,4.76-1.52-.91-2.86Zm7.62-2.43-4.76,1.52.91,2.86,2.84-.91h0l1.92-.61-.91-2.86Zm7.62-2.43-4.76,1.52.91,2.85.8-.25,4-1.27-.92-2.85Zm7.62-2.44-4.76,1.52.91,2.86,1.78-.57,2.62-.83.37-.12-.92-2.86Zm7.63-2.43-4.77,1.52.92,2.86,4.76-1.52-.91-2.86Zm7.62-2.43-4.77,1.52.92,2.86,0,0h.05l3.06-1h0l1.57-.5-.91-2.86Zm7.62-2.43-4.76,1.52.91,2.85,4.76-1.52-.91-2.85Zm7.62-2.44-4.76,1.52.91,2.86,1-.32,1.45-.46h0l.07,0h0l0,0,2.2-.7-.92-2.86Zm7.62-2.43-4.76,1.52.91,2.86,4.77-1.52-.92-2.86Zm5.57-3.35a13.65,13.65,0,0,1-3.28,2.42l1.39,2.65a16.86,16.86,0,0,0,3.18-2.17h0l0,0h.23l0,0h0v0h0l.52-.5-2.12-2.12Zm3.32-5.55a13.21,13.21,0,0,1-1.76,3.67l2.48,1.69.33-.51h0l0-.06h0v0h0l0,0h0v0h0v0h.14v0h0v0h.07v0h0l0,0h0v0h0a16.76,16.76,0,0,0,1.11-2.39h0v0h0v0h0v0h0v0h.06v0h0v0h0v0h0c.06-.17.11-.34.16-.51l-2.87-.87Zm3.28-7-2.94.58a13.47,13.47,0,0,1,.16,4.06l3,.34h0v0h.08v0h0v0h0v0h0v0h0v0h0v0h0v0h0v0h0v0h0v0h0v0h0v0h0v0h0v0h0v0h0a15.87,15.87,0,0,0-.3-2.77Zm-3.35-7.18L425.54,379a13.35,13.35,0,0,1,2,3.52l2.79-1.1A15.76,15.76,0,0,0,429,378.7h0l0,0h0l0,0h0v0h0v0h-.15v0h0l0,0h0l0,0h0l0,0h0l0,0h0l0,0h0c-.23-.33-.47-.65-.73-1Zm-6.31-4.77-1.18,2.76a12.94,12.94,0,0,1,3.45,2.14l2-2.28c-.23-.19-.47-.39-.72-.57h0l0,0h0l0,0h0l0,0h-.16l0,0h0l0,0h-.05l0,0h0l0,0h0c-.24-.18-.48-.34-.73-.5h0l0,0h-.4l0,0h0l0,0h0a15.23,15.23,0,0,0-1.85-.93Zm-6.45-1.32v3a12.75,12.75,0,0,1,2,.16c.3,0,.6.1.9.17l.66-2.93-.3-.06h-.81a16.25,16.25,0,0,0-2.49-.19Z" transform="translate(-56.26 -141.33)"/><circle class="cls-4" cx="358.21" cy="246.52" r="5.23"/><circle class="cls-7" cx="6.27" cy="5.36" r="3.31"/><circle cx="351.92" cy="205.9" r="16.5"/><path class="cls-8" d="M396.42,344.87a12,12,0,0,1,11.76-9.62,11.81,11.81,0,0,1,3.43.5" transform="translate(-56.26 -141.33)"/><circle class="cls-7" cx="486.06" cy="5.95" r="3.31"/><path class="cls-2" d="M189.62,403a15.89,15.89,0,0,1-15.22-11.37,15.73,15.73,0,0,1,1.26-12.11,15.91,15.91,0,0,1,8.28-7.26l.48-.18,72.05-26.59a6.05,6.05,0,0,1,1.66-.24,5.91,5.91,0,0,1,5.18,8.71,6,6,0,0,1-1.35,1.64l-.09.08-63.56,44.75,0,0A16,16,0,0,1,189.62,403Z" transform="translate(-56.26 -141.33)"/><path d="M258.13,345.79a5.36,5.36,0,0,1,3.5,9.47l-.05.05L198,400l0,0a15.4,15.4,0,1,1-13.88-27.3l.34-.14L256.61,346a5.64,5.64,0,0,1,1.52-.22m0-1a6.29,6.29,0,0,0-1.83.27h0l-72.55,26.77h0a16.4,16.4,0,0,0,5.86,31.71,16.51,16.51,0,0,0,8.92-2.62h0l0,0c.1-.06,63.73-44.87,63.73-44.87h0a6.19,6.19,0,0,0,1.46-1.78,6.39,6.39,0,0,0-2.57-8.67,6.31,6.31,0,0,0-3-.78Z" transform="translate(-56.26 -141.33)"/><circle class="cls-4" cx="134.1" cy="245.52" r="5.23"/><path class="cls-9" d="M333.06,369.51a83.29,83.29,0,0,0,2.86,41.08" transform="translate(-56.26 -141.33)"/><polygon points="268.41 231.91 276.36 230.62 282.8 235.44 279.8 216.62 268.41 231.91"/><path class="cls-2" d="M415.14,403.48a16,16,0,0,1-8.65-2.54l0,0-63.59-44.77-.06-.06a5.8,5.8,0,0,1-1.35-1.64A5.9,5.9,0,0,1,341,350a5.94,5.94,0,0,1,5.65-4.22,5.94,5.94,0,0,1,1.68.25l72.26,26.66.25.1a15.9,15.9,0,0,1-5.68,30.74Z" transform="translate(-56.26 -141.33)"/><path d="M346.63,346.23h0a5.51,5.51,0,0,1,1.51.22l72,26.56.52.2a15.4,15.4,0,1,1-13.88,27.31l0,0c-1.68-1.17-60.19-42.37-63.54-44.73l-.07-.06a5.27,5.27,0,0,1-1.23-1.5,5.41,5.41,0,0,1,4.74-8m0-1a6.31,6.31,0,0,0-3,.78,6.34,6.34,0,0,0-1.12,10.45h0s63.63,44.81,63.73,44.87l0,0h0a16.41,16.41,0,0,0,23.32-21.6,16.31,16.31,0,0,0-8.54-7.48h0L348.46,345.5h0a6.64,6.64,0,0,0-1.83-.27Z" transform="translate(-56.26 -141.33)"/><circle class="cls-4" cx="358.15" cy="245.97" r="5.23"/><circle class="cls-10" cx="139.32" cy="203.46" r="16.5"/><line class="cls-3" x1="131.83" y1="183.43" x2="125.71" y2="167.88"/><polygon class="cls-1" points="131.62 169.54 126.31 169.4 122.52 173.12 122.82 160.55 131.62 169.54"/><path class="cls-11" d="M202.16,287.41s95.87-93,182.54,21.34" transform="translate(-56.26 -141.33)"/><polygon points="319.11 167.26 326.95 165.45 331.09 158.55 335.42 177.11 319.11 167.26"/></svg>