<svg id="Layer_1" data-name="Layer 1" xmlns="http://www.w3.org/2000/svg" viewBox="0 0 507.4 352.65"><defs><style>.cls-1,.cls-3{fill:#e5e5e5;}.cls-2,.cls-4,.cls-5{fill:#fff;}.cls-2,.cls-3,.cls-4,.cls-5{stroke:#000;}.cls-10,.cls-12,.cls-13,.cls-2,.cls-3,.cls-4,.cls-5,.cls-6,.cls-7,.cls-9{stroke-miterlimit:10;}.cls-10,.cls-12,.cls-13,.cls-4,.cls-9{stroke-linecap:round;}.cls-10,.cls-12,.cls-13,.cls-4,.cls-5,.cls-9{stroke-width:2px;}.cls-10,.cls-12,.cls-13,.cls-6,.cls-7,.cls-9{fill:none;}.cls-6,.cls-7{stroke:#ababab;}.cls-6{stroke-width:4px;stroke-dasharray:6 3;}.cls-7{stroke-width:3px;}.cls-8{fill:#ababab;}.cls-10,.cls-12,.cls-13,.cls-9{stroke:gray;}.cls-10{stroke-dasharray:1.87 2.5;}.cls-11{fill:gray;}.cls-12{stroke-dasharray:2.91 3.88;}.cls-13{stroke-dasharray:2.92 3.9;}</style></defs><title>sling-terminology</title><path class="cls-1" d="M410.78,303.66a9.6,9.6,0,0,1-3.46-.64,9.73,9.73,0,0,1-5.59-12.54L444.85,178a9.7,9.7,0,0,1,18.7,2.4v.07c.06,1.22.06,84.08.06,84.92a18.13,18.13,0,0,1-.55,4.86,9.72,9.72,0,0,1-3.23,4.27l-.09.07-43.4,27.32h0l-.29.17A9.73,9.73,0,0,1,410.78,303.66Z" transform="translate(-48.05 -97.59)"/><path d="M453.91,172.29a9.19,9.19,0,0,1,9.14,8.16h0v.05c.05,1.23.06,56.08.06,84.93a16.66,16.66,0,0,1-.52,4.66,9.15,9.15,0,0,1-3.06,4.05l-.05,0L416.41,301.3h0l-.61.39a9.22,9.22,0,0,1-5,1.48,9,9,0,0,1-3.28-.61,9.21,9.21,0,0,1-5.3-11.89L445.31,178.2a9.27,9.27,0,0,1,8.6-5.91m0-1a10.21,10.21,0,0,0-9.53,6.55L401.27,290.3a10.2,10.2,0,0,0,15.06,12.22h0L460.13,275v0a10.09,10.09,0,0,0,3.39-4.49,18.23,18.23,0,0,0,.59-5s0-84.28-.07-85v-.08h0a10.22,10.22,0,0,0-10.14-9.07Z" transform="translate(-48.05 -97.59)"/><path class="cls-2" d="M512.52,324.66" transform="translate(-48.05 -97.59)"/><path class="cls-2" d="M405.33,350.53" transform="translate(-48.05 -97.59)"/><path class="cls-2" d="M422.33,376" transform="translate(-48.05 -97.59)"/><path class="cls-3" d="M506.49,317.74V282.68a5,5,0,0,0-10,0,17.42,17.42,0,0,1-8,14.66l-85.32,53.72a3.32,3.32,0,0,0,.71,5.91h0a17.87,17.87,0,0,1,11.78,18.4,3.32,3.32,0,0,0,5,3.14l79.94-50.33a12.44,12.44,0,0,0,5.82-10.55" transform="translate(-48.05 -97.59)"/><line class="cls-4" x1="453.65" y1="173.37" x2="453.65" y2="86.61"/><path class="cls-1" d="M194.07,303.17a9.79,9.79,0,0,1-5.29-1.56l-.31-.2h0l-43.41-27.33,0,0a9.65,9.65,0,0,1-3.23-4.27,17.68,17.68,0,0,1-.55-4.85c0-.85,0-83.71.06-84.94v-.06a9.69,9.69,0,0,1,6.16-8,9.88,9.88,0,0,1,3.48-.64,9.76,9.76,0,0,1,9.06,6.23L203.11,290a9.72,9.72,0,0,1-5.59,12.54A9.5,9.5,0,0,1,194.07,303.17Z" transform="translate(-48.05 -97.59)"/><path d="M150.94,171.8h0a9.24,9.24,0,0,1,8.59,5.91l43.12,112.46a9.22,9.22,0,0,1-5.31,11.89,9,9,0,0,1-3.27.61,9.2,9.2,0,0,1-5-1.48l-.62-.39h0l-43.05-27.1-.07-.06a9.07,9.07,0,0,1-3.06-4,16.72,16.72,0,0,1-.52-4.68c0-28.83,0-83.68.06-84.87V180h0a9.2,9.2,0,0,1,5.85-7.57,9.1,9.1,0,0,1,3.3-.61m0-1a10.21,10.21,0,0,0-10.14,9.07h0V180c-.07.69-.06,85-.06,85a18.49,18.49,0,0,0,.58,5,10.11,10.11,0,0,0,3.4,4.49v0L188.51,302h0a10.27,10.27,0,0,0,5.56,1.64,10,10,0,0,0,3.63-.67,10.21,10.21,0,0,0,5.88-13.19L160.47,177.35a10.21,10.21,0,0,0-9.53-6.55Z" transform="translate(-48.05 -97.59)"/><path class="cls-2" d="M92.32,324.17" transform="translate(-48.05 -97.59)"/><path class="cls-2" d="M199.52,350" transform="translate(-48.05 -97.59)"/><path class="cls-2" d="M182.51,375.46" transform="translate(-48.05 -97.59)"/><path class="cls-1" d="M266.94,407a4.92,4.92,0,0,1-1.06-.12l-.08,0-61.52-19.63h0a13.13,13.13,0,0,1,2.5-25.31,13.33,13.33,0,0,1,2-.15,13.07,13.07,0,0,1,6.91,2l.36.22,53.75,34.37a4.81,4.81,0,0,1-2.14,8.62A5.19,5.19,0,0,1,266.94,407Z" transform="translate(-48.05 -97.59)"/><path d="M208.74,362.25a12.58,12.58,0,0,1,6.65,1.9l.27.17,53.81,34.4a4.31,4.31,0,0,1,1.68,2.81,4.2,4.2,0,0,1-.79,3.2,4.25,4.25,0,0,1-2.82,1.71,3.94,3.94,0,0,1-.6.05,4.47,4.47,0,0,1-.95-.11h-.05l-61.48-19.62h0a12.66,12.66,0,0,1-8.17-10,12.59,12.59,0,0,1,12.49-14.53h0m0-1a14.62,14.62,0,0,0-2.07.15,13.63,13.63,0,0,0-2.59,26.28h0l61.67,19.68h0a5.65,5.65,0,0,0,1.16.13,4.74,4.74,0,0,0,.75-.06A5.31,5.31,0,0,0,270,397.9h0l-54.11-34.6h0a13.53,13.53,0,0,0-7.17-2.05Z" transform="translate(-48.05 -97.59)"/><circle class="cls-2" cx="161.23" cy="277.62" r="4.34"/><path class="cls-3" d="M98.35,317.25V282.19a5,5,0,0,1,10,0,17.44,17.44,0,0,0,8,14.66l85.33,53.72a3.32,3.32,0,0,1-.72,5.91h0a17.88,17.88,0,0,0-11.78,18.4,3.32,3.32,0,0,1-5,3.14l-79.94-50.33a12.45,12.45,0,0,1-5.83-10.55" transform="translate(-48.05 -97.59)"/><line class="cls-4" x1="55.1" y1="172.88" x2="55.1" y2="86.12"/><path class="cls-1" d="M337.83,407.37a5.31,5.31,0,0,1-.68-.05,4.82,4.82,0,0,1-2.12-8.64l53.87-34.44.22-.14a13.16,13.16,0,0,1,6.91-2,13.33,13.33,0,0,1,2,.15,13.12,13.12,0,0,1,2.5,25.31L339,407.24h-.07A4.92,4.92,0,0,1,337.83,407.37Z" transform="translate(-48.05 -97.59)"/><path d="M396,362.62a12.64,12.64,0,0,1,12.49,14.54,12.63,12.63,0,0,1-8.17,9.95h0l-61.49,19.63h-.06a4.47,4.47,0,0,1-.95.11,4,4,0,0,1-.6-.05,4.31,4.31,0,0,1-3.61-4.91,4.26,4.26,0,0,1,1.69-2.81L389,364.77l.38-.24a12.59,12.59,0,0,1,6.65-1.91m0-1a13.56,13.56,0,0,0-7.17,2.06h0l-54.11,34.61h0a5.25,5.25,0,0,0-2.11,3.47,5.32,5.32,0,0,0,4.45,6.06,4.74,4.74,0,0,0,.75.06,5.5,5.5,0,0,0,1.16-.13h0l61.68-19.69h0a13.62,13.62,0,0,0-2.6-26.27,13.31,13.31,0,0,0-2.07-.16Z" transform="translate(-48.05 -97.59)"/><circle class="cls-2" cx="347.45" cy="277.99" r="4.34"/><circle class="cls-5" cx="55.1" cy="77.66" r="2.75"/><circle class="cls-5" cx="453.65" cy="78.15" r="2.75"/><path d="M92.72,236.63,83,231.9l9.73-4.73a1.1,1.1,0,0,0,.49-1.47l-1-2a1.1,1.1,0,0,0-1.47-.49L78,229.47,65.2,223.25a1.1,1.1,0,0,0-1.47.49l-1,2a1.1,1.1,0,0,0,.49,1.47L73,231.9l-9.73,4.73a1.11,1.11,0,0,0-.49,1.48l1,2a1.1,1.1,0,0,0,1.47.49L78,234.34l12.78,6.22a1.1,1.1,0,0,0,1.47-.49l1-2A1.11,1.11,0,0,0,92.72,236.63ZM72.91,221.85l-.37,1.78a1.33,1.33,0,0,0,1.12,1.7H82.3a1.34,1.34,0,0,0,1.13-1.7l-.38-1.78a8.58,8.58,0,0,0,4.79-7.48c0-4.84-4.41-8.77-9.86-8.77s-9.86,3.93-9.86,8.77A8.58,8.58,0,0,0,72.91,221.85Zm8.91-8.58a2.2,2.2,0,1,1-2.2,2.19A2.19,2.19,0,0,1,81.82,213.27Zm-7.68,0A2.2,2.2,0,1,1,72,215.46,2.2,2.2,0,0,1,74.14,213.27Z" transform="translate(-48.05 -97.59)"/><path d="M541.6,236.63l-9.72-4.73,9.73-4.73a1.09,1.09,0,0,0,.48-1.47l-1-2a1.09,1.09,0,0,0-1.47-.49l-12.77,6.22-12.78-6.22a1.1,1.1,0,0,0-1.47.49l-1,2a1.1,1.1,0,0,0,.49,1.47l9.72,4.73-9.72,4.73a1.1,1.1,0,0,0-.49,1.47l1,2a1.1,1.1,0,0,0,1.47.49l12.78-6.22,12.77,6.22a1.09,1.09,0,0,0,1.47-.49l1-2A1.08,1.08,0,0,0,541.6,236.63Zm-19.8-14.78-.38,1.78a1.34,1.34,0,0,0,1.13,1.7h8.64a1.33,1.33,0,0,0,1.12-1.7l-.37-1.78a8.59,8.59,0,0,0,4.79-7.48c0-4.84-4.42-8.77-9.86-8.77s-9.87,3.93-9.87,8.77A8.6,8.6,0,0,0,521.8,221.85Zm8.9-8.58a2.2,2.2,0,1,1-2.19,2.19A2.19,2.19,0,0,1,530.7,213.27Zm-7.67,0a2.2,2.2,0,1,1-2.19,2.19A2.19,2.19,0,0,1,523,213.27Z" transform="translate(-48.05 -97.59)"/><path d="M319.19,426.89l-9.39-4.56,9.39-4.57a1.06,1.06,0,0,0,.47-1.42l-.94-1.89a1.07,1.07,0,0,0-1.42-.48L305,420l-12.33-6a1.06,1.06,0,0,0-1.42.48l-.94,1.89a1.05,1.05,0,0,0,.47,1.42l9.39,4.57-9.39,4.56a1.05,1.05,0,0,0-.47,1.42l.94,1.89a1.06,1.06,0,0,0,1.42.48l12.33-6,12.34,6a1.06,1.06,0,0,0,1.42-.48l.94-1.89A1.06,1.06,0,0,0,319.19,426.89Zm-19.12-14.26-.36,1.71A1.29,1.29,0,0,0,300.8,416h8.33a1.29,1.29,0,0,0,1.09-1.64l-.36-1.71a8.31,8.31,0,0,0,4.62-7.23c0-4.67-4.26-8.46-9.52-8.46s-9.52,3.79-9.52,8.46A8.32,8.32,0,0,0,300.07,412.63Zm8.6-8.29a2.12,2.12,0,1,1-2.12,2.12A2.12,2.12,0,0,1,308.67,404.34Zm-7.41,0a2.12,2.12,0,1,1-2.11,2.12A2.12,2.12,0,0,1,301.26,404.34Z" transform="translate(-48.05 -97.59)"/><line class="cls-4" x1="5.1" y1="222.88" x2="5.1" y2="56.12"/><circle class="cls-5" cx="5.1" cy="47.66" r="2.75"/><line class="cls-4" x1="503.65" y1="223.37" x2="503.65" y2="56.61"/><circle class="cls-5" cx="503.65" cy="48.15" r="2.75"/><polygon class="cls-6" points="343.85 197.73 394.42 65.27 115.29 65.27 165.86 197.73 343.85 197.73"/><path d="M268.5,236.06h-.9v-12h-4.18v-.84h9.26v.84H268.5Z" transform="translate(-48.05 -97.59)"/><path d="M281,236.06v-6.2a3,3,0,0,0-.61-2.09,2.43,2.43,0,0,0-1.88-.66A3.25,3.25,0,0,0,276,228a4.08,4.08,0,0,0-.8,2.81v5.27h-.87V222.38h.87v4.36l0,1.22h.06a3.19,3.19,0,0,1,1.36-1.25,4.68,4.68,0,0,1,2-.39c2.16,0,3.25,1.17,3.25,3.49v6.25Z" transform="translate(-48.05 -97.59)"/><path d="M288.84,236.24a4.16,4.16,0,0,1-3.25-1.29,5.17,5.17,0,0,1-1.16-3.59,5.58,5.58,0,0,1,1.12-3.66,3.71,3.71,0,0,1,3-1.38,3.27,3.27,0,0,1,2.67,1.18,4.87,4.87,0,0,1,1,3.2v.7h-6.88a4.53,4.53,0,0,0,.92,3,3.24,3.24,0,0,0,2.58,1,7.75,7.75,0,0,0,1.44-.12,9.49,9.49,0,0,0,1.57-.49v.79a7.58,7.58,0,0,1-1.5.48A8.76,8.76,0,0,1,288.84,236.24Zm-.26-9.14a2.86,2.86,0,0,0-2.21.91,4.29,4.29,0,0,0-1,2.62h5.91a4.18,4.18,0,0,0-.72-2.6A2.39,2.39,0,0,0,288.58,227.1Z" transform="translate(-48.05 -97.59)"/><path d="M306.85,232.75a3.11,3.11,0,0,1-1.18,2.55,5,5,0,0,1-3.15.94,10,10,0,0,1-3.61-.52v-.9a9.21,9.21,0,0,0,3.54.59,4,4,0,0,0,2.51-.72,2.31,2.31,0,0,0,.93-1.91,2.18,2.18,0,0,0-.31-1.21,2.73,2.73,0,0,0-1-.87,12.08,12.08,0,0,0-2-.85,6.9,6.9,0,0,1-2.72-1.47,3.13,3.13,0,0,1,.38-4.44,4.45,4.45,0,0,1,2.9-.91,8.48,8.48,0,0,1,3.41.68l-.33.78a7.88,7.88,0,0,0-3.06-.67,3.6,3.6,0,0,0-2.27.66,2.15,2.15,0,0,0-.84,1.79,2.06,2.06,0,0,0,1.11,2,11.65,11.65,0,0,0,2,.87,11.64,11.64,0,0,1,2.26,1,3.31,3.31,0,0,1,1.1,1.11A3,3,0,0,1,306.85,232.75Z" transform="translate(-48.05 -97.59)"/><path d="M310.21,236.06h-.87V222.38h.87Z" transform="translate(-48.05 -97.59)"/><path d="M313.29,223.85c0-.56.19-.84.55-.84a.48.48,0,0,1,.43.22,1.09,1.09,0,0,1,.15.62,1.15,1.15,0,0,1-.15.63.49.49,0,0,1-.43.23C313.48,224.71,313.29,224.42,313.29,223.85Zm1,12.21h-.87v-9.55h.87Z" transform="translate(-48.05 -97.59)"/><path d="M324.15,236.06v-6.2a3,3,0,0,0-.61-2.09,2.44,2.44,0,0,0-1.88-.66,3.25,3.25,0,0,0-2.51.87,4.08,4.08,0,0,0-.8,2.81v5.27h-.87v-9.55h.74l.17,1.31h.05a3.59,3.59,0,0,1,3.31-1.5c2.17,0,3.26,1.17,3.26,3.49v6.25Z" transform="translate(-48.05 -97.59)"/><path d="M335.55,226.51v.6l-2,.13a3.39,3.39,0,0,1,.79,2.16,3,3,0,0,1-.92,2.24,3.48,3.48,0,0,1-2.47.85,6.08,6.08,0,0,1-.91-.05,2.16,2.16,0,0,0-.79.64,1.32,1.32,0,0,0-.27.78.72.72,0,0,0,.34.67,2.38,2.38,0,0,0,1.17.21h1.67a3.88,3.88,0,0,1,2.38.63,2.2,2.2,0,0,1,.83,1.86,2.63,2.63,0,0,1-1.23,2.33,6.23,6.23,0,0,1-3.49.82,4.79,4.79,0,0,1-2.79-.69,2.23,2.23,0,0,1-1-1.93,2.3,2.3,0,0,1,.61-1.64,3.18,3.18,0,0,1,1.65-.89,1.71,1.71,0,0,1-.69-.52,1.24,1.24,0,0,1-.26-.78,2,2,0,0,1,1.23-1.68,2.71,2.71,0,0,1-1.3-1.08,3.08,3.08,0,0,1-.47-1.68,3,3,0,0,1,.91-2.3,3.41,3.41,0,0,1,2.46-.87,4.37,4.37,0,0,1,1.46.19Zm-7.73,11.17c0,1.31,1,2,2.93,2,2.5,0,3.76-.8,3.76-2.4a1.39,1.39,0,0,0-.59-1.25,3.56,3.56,0,0,0-1.91-.39h-1.56C328.7,235.61,327.82,236.3,327.82,237.68Zm.73-8.19a2.18,2.18,0,0,0,.67,1.71,3,3,0,0,0,3.63,0,2.3,2.3,0,0,0,.64-1.76,2.38,2.38,0,0,0-.66-1.83A2.55,2.55,0,0,0,331,227a2.47,2.47,0,0,0-1.8.65A2.51,2.51,0,0,0,328.55,229.49Z" transform="translate(-48.05 -97.59)"/><path d="M100.72,149.8V137h.9V149.8Z" transform="translate(-48.05 -97.59)"/><path d="M111.7,149.8v-6.19a3.06,3.06,0,0,0-.61-2.1,2.42,2.42,0,0,0-1.88-.65,3.25,3.25,0,0,0-2.51.86,4.08,4.08,0,0,0-.8,2.81v5.27H105v-9.55h.74l.17,1.31h0a3.59,3.59,0,0,1,3.32-1.5c2.16,0,3.25,1.17,3.25,3.49v6.25Z" transform="translate(-48.05 -97.59)"/><path d="M116.52,149.8h-.87V136.13h.87Z" transform="translate(-48.05 -97.59)"/><path d="M125.52,149.8l-.22-1.51h-.07a4.52,4.52,0,0,1-1.48,1.31,4,4,0,0,1-1.8.38,3.1,3.1,0,0,1-2.18-.72,2.56,2.56,0,0,1-.79-2,2.46,2.46,0,0,1,1.17-2.17,6.37,6.37,0,0,1,3.37-.82l1.82-.05v-.63a3.26,3.26,0,0,0-.56-2.06,2.15,2.15,0,0,0-1.78-.69,5.86,5.86,0,0,0-2.75.74l-.33-.76a7.33,7.33,0,0,1,3.11-.74,3.1,3.1,0,0,1,2.36.82,3.62,3.62,0,0,1,.77,2.55v6.35Zm-3.51-.61a3,3,0,0,0,3.29-3.31v-.94l-1.67.07a6.44,6.44,0,0,0-2.87.63,1.82,1.82,0,0,0-.85,1.66,1.76,1.76,0,0,0,.55,1.39A2.22,2.22,0,0,0,122,149.19Z" transform="translate(-48.05 -97.59)"/><path d="M135.92,149.8v-6.19a3,3,0,0,0-.61-2.1,2.42,2.42,0,0,0-1.88-.65,3.25,3.25,0,0,0-2.51.86,4.09,4.09,0,0,0-.79,2.81v5.27h-.87v-9.55H130l.16,1.31h.06a3.58,3.58,0,0,1,3.31-1.5c2.17,0,3.25,1.17,3.25,3.49v6.25Z" transform="translate(-48.05 -97.59)"/><path d="M143.73,150a4.15,4.15,0,0,1-3.24-1.28,5.17,5.17,0,0,1-1.17-3.6,5.62,5.62,0,0,1,1.13-3.66,3.71,3.71,0,0,1,3-1.38,3.29,3.29,0,0,1,2.66,1.18,4.87,4.87,0,0,1,1,3.2v.71h-6.89a4.55,4.55,0,0,0,.92,3,3.24,3.24,0,0,0,2.58,1,7.6,7.6,0,0,0,1.44-.12,8.38,8.38,0,0,0,1.57-.49v.79a6.46,6.46,0,0,1-1.5.48A7.8,7.8,0,0,1,143.73,150Zm-.25-9.14a2.87,2.87,0,0,0-2.22.91,4.29,4.29,0,0,0-1,2.62h5.9a4.18,4.18,0,0,0-.72-2.6A2.37,2.37,0,0,0,143.48,140.84Z" transform="translate(-48.05 -97.59)"/><path d="M59.53,111.43A7.18,7.18,0,0,1,58,116.27a5.23,5.23,0,0,1-4.21,1.78,5.24,5.24,0,0,1-4.21-1.78,7.22,7.22,0,0,1-1.53-4.86,7.09,7.09,0,0,1,1.54-4.83,5.32,5.32,0,0,1,4.21-1.76A5.24,5.24,0,0,1,58,106.59,7.16,7.16,0,0,1,59.53,111.43Zm-10.51,0a6.6,6.6,0,0,0,1.23,4.27,4.92,4.92,0,0,0,7.08,0,8,8,0,0,0,0-8.54,4.93,4.93,0,0,0-7.06,0A6.44,6.44,0,0,0,49,111.43Z" transform="translate(-48.05 -97.59)"/><path d="M63,108.32v6.19a3,3,0,0,0,.61,2.09,2.43,2.43,0,0,0,1.88.66A3.3,3.3,0,0,0,68,116.4a4,4,0,0,0,.8-2.81v-5.27h.87v9.55H69l-.16-1.31h-.05a3.61,3.61,0,0,1-3.32,1.49q-3.26,0-3.26-3.49v-6.24Z" transform="translate(-48.05 -97.59)"/><path d="M75.41,117.28a6.75,6.75,0,0,0,1.44-.14v.7a4.63,4.63,0,0,1-1.46.21,2.39,2.39,0,0,1-1.87-.68,3.14,3.14,0,0,1-.6-2.12v-6.17H71.5v-.51l1.42-.4.44-2.16h.45v2.31h2.8v.76h-2.8v6a2.84,2.84,0,0,0,.38,1.63A1.43,1.43,0,0,0,75.41,117.28Z" transform="translate(-48.05 -97.59)"/><path d="M79.78,117.87h-.87V104.2h.87Z" transform="translate(-48.05 -97.59)"/><path d="M88.78,117.87l-.22-1.51h-.07A4.52,4.52,0,0,1,87,117.67a4,4,0,0,1-1.79.38,3.11,3.11,0,0,1-2.19-.72,2.59,2.59,0,0,1-.78-2,2.46,2.46,0,0,1,1.16-2.17,6.31,6.31,0,0,1,3.37-.81l1.82-.06v-.63a3.26,3.26,0,0,0-.55-2.06,2.17,2.17,0,0,0-1.79-.69,5.89,5.89,0,0,0-2.75.74l-.32-.76a7.26,7.26,0,0,1,3.11-.74,3.12,3.12,0,0,1,2.35.82,3.59,3.59,0,0,1,.78,2.55v6.35Zm-3.51-.61A3,3,0,0,0,88.56,114V113l-1.67.07a6.48,6.48,0,0,0-2.87.63,1.82,1.82,0,0,0-.85,1.66,1.76,1.76,0,0,0,.55,1.39A2.22,2.22,0,0,0,85.27,117.26Z" transform="translate(-48.05 -97.59)"/><path d="M99.18,117.87v-6.19a3.06,3.06,0,0,0-.6-2.1,2.46,2.46,0,0,0-1.89-.65,3.22,3.22,0,0,0-2.5.86,4,4,0,0,0-.8,2.81v5.27h-.87v-9.55h.74l.16,1.31h.06a3.57,3.57,0,0,1,3.31-1.49q3.25,0,3.25,3.48v6.25Z" transform="translate(-48.05 -97.59)"/><path d="M107,118.05a4.17,4.17,0,0,1-3.25-1.28,5.17,5.17,0,0,1-1.17-3.6,5.62,5.62,0,0,1,1.13-3.66,3.7,3.7,0,0,1,3-1.37,3.27,3.27,0,0,1,2.66,1.17,4.87,4.87,0,0,1,1,3.2v.71H103.5a4.45,4.45,0,0,0,.92,3,3.24,3.24,0,0,0,2.58,1,7.56,7.56,0,0,0,1.43-.12,8.16,8.16,0,0,0,1.57-.49v.79a6.55,6.55,0,0,1-1.49.48A7.87,7.87,0,0,1,107,118.05Zm-.26-9.14a2.83,2.83,0,0,0-2.21.91,4.23,4.23,0,0,0-1,2.62h5.91a4.12,4.12,0,0,0-.73-2.6A2.37,2.37,0,0,0,106.74,108.91Z" transform="translate(-48.05 -97.59)"/><path d="M458.2,104.82a7.18,7.18,0,0,1-1.53,4.84,5.87,5.87,0,0,1-8.42,0,7.2,7.2,0,0,1-1.53-4.86,7,7,0,0,1,1.54-4.82,5.3,5.3,0,0,1,4.21-1.77,5.24,5.24,0,0,1,4.21,1.77A7.16,7.16,0,0,1,458.2,104.82Zm-10.51,0a6.6,6.6,0,0,0,1.23,4.27,4.92,4.92,0,0,0,7.08,0,8,8,0,0,0,0-8.54,4.94,4.94,0,0,0-7.07,0A6.49,6.49,0,0,0,447.69,104.82Z" transform="translate(-48.05 -97.59)"/><path d="M461.69,101.71v6.19a3,3,0,0,0,.61,2.09,2.43,2.43,0,0,0,1.88.66,3.3,3.3,0,0,0,2.51-.86,4.08,4.08,0,0,0,.8-2.81v-5.27h.86v9.55h-.73l-.16-1.31h0a3.62,3.62,0,0,1-3.32,1.49q-3.25,0-3.26-3.49v-6.24Z" transform="translate(-48.05 -97.59)"/><path d="M474.08,110.67a6.75,6.75,0,0,0,1.44-.14v.7a4.63,4.63,0,0,1-1.46.21,2.38,2.38,0,0,1-1.87-.68,3.14,3.14,0,0,1-.6-2.12v-6.17h-1.42V102l1.42-.4L472,99.4h.45v2.31h2.8v.76h-2.8v6a2.82,2.82,0,0,0,.38,1.63A1.43,1.43,0,0,0,474.08,110.67Z" transform="translate(-48.05 -97.59)"/><path d="M478.45,111.26h-.87V97.59h.87Z" transform="translate(-48.05 -97.59)"/><path d="M487.45,111.26l-.22-1.51h-.07a4.52,4.52,0,0,1-1.48,1.31,4,4,0,0,1-1.8.38,3.1,3.1,0,0,1-2.18-.72,2.56,2.56,0,0,1-.79-2,2.46,2.46,0,0,1,1.17-2.17,6.38,6.38,0,0,1,3.37-.81l1.82-.06v-.63a3.26,3.26,0,0,0-.56-2.06,2.13,2.13,0,0,0-1.78-.69,6,6,0,0,0-2.75.74l-.33-.76a7.34,7.34,0,0,1,3.12-.74,3.13,3.13,0,0,1,2.35.82,3.65,3.65,0,0,1,.77,2.55v6.35Zm-3.51-.61a3,3,0,0,0,3.29-3.31v-.94l-1.67.07a6.44,6.44,0,0,0-2.87.63,1.82,1.82,0,0,0-.85,1.66,1.76,1.76,0,0,0,.55,1.39A2.22,2.22,0,0,0,483.94,110.65Z" transform="translate(-48.05 -97.59)"/><path d="M497.85,111.26v-6.19a3,3,0,0,0-.61-2.1,2.46,2.46,0,0,0-1.88-.65,3.29,3.29,0,0,0-2.51.86,4.1,4.1,0,0,0-.79,2.81v5.27h-.87v-9.55h.74l.16,1.31h.06a3.57,3.57,0,0,1,3.31-1.49q3.26,0,3.25,3.49v6.24Z" transform="translate(-48.05 -97.59)"/><path d="M505.66,111.44a4.17,4.17,0,0,1-3.24-1.28,5.17,5.17,0,0,1-1.17-3.6,5.62,5.62,0,0,1,1.13-3.66,3.7,3.7,0,0,1,3-1.37,3.28,3.28,0,0,1,2.66,1.17,4.89,4.89,0,0,1,1,3.2v.71h-6.88a4.5,4.5,0,0,0,.91,3,3.24,3.24,0,0,0,2.58,1,8.61,8.61,0,0,0,1.44-.11,9.39,9.39,0,0,0,1.57-.5v.79a6.55,6.55,0,0,1-1.49.48A8,8,0,0,1,505.66,111.44Zm-.25-9.14a2.87,2.87,0,0,0-2.22.91,4.31,4.31,0,0,0-1,2.62h5.9a4.15,4.15,0,0,0-.72-2.59A2.35,2.35,0,0,0,505.41,102.3Z" transform="translate(-48.05 -97.59)"/><path d="M465.45,119.11a3.39,3.39,0,0,1-1.27,2.85,5.69,5.69,0,0,1-3.58,1h-2v5.3h-.9V115.42h3.15Q465.45,115.42,465.45,119.11Zm-6.84,3.07h1.77a5.43,5.43,0,0,0,3.14-.71,2.73,2.73,0,0,0,1-2.33,2.62,2.62,0,0,0-.91-2.2,4.55,4.55,0,0,0-2.83-.72h-2.13Z" transform="translate(-48.05 -97.59)"/><path d="M475.93,123.47a5.42,5.42,0,0,1-1.14,3.66,3.92,3.92,0,0,1-3.13,1.31,4,4,0,0,1-2.21-.61,3.83,3.83,0,0,1-1.47-1.74,6.31,6.31,0,0,1-.51-2.62,5.41,5.41,0,0,1,1.13-3.64,3.92,3.92,0,0,1,3.12-1.3,3.84,3.84,0,0,1,3.09,1.32A5.46,5.46,0,0,1,475.93,123.47Zm-7.55,0a4.86,4.86,0,0,0,.87,3.08,3.28,3.28,0,0,0,4.9,0,4.93,4.93,0,0,0,.86-3.08,4.78,4.78,0,0,0-.87-3.06,3,3,0,0,0-2.46-1.09,2.94,2.94,0,0,0-2.44,1.08A4.88,4.88,0,0,0,468.38,123.47Z" transform="translate(-48.05 -97.59)"/><path d="M484.5,125.78a2.28,2.28,0,0,1-1,2,4.74,4.74,0,0,1-2.77.69,6.62,6.62,0,0,1-3-.59v-.94a6.7,6.7,0,0,0,3,.72,4,4,0,0,0,2.15-.47,1.42,1.42,0,0,0,.73-1.25,1.5,1.5,0,0,0-.58-1.21,6.47,6.47,0,0,0-1.92-1,10.84,10.84,0,0,1-2-.89,2.76,2.76,0,0,1-.88-.85,2.14,2.14,0,0,1-.29-1.14,2,2,0,0,1,.9-1.7,4.35,4.35,0,0,1,2.52-.62,7.44,7.44,0,0,1,2.93.58l-.32.79a6.84,6.84,0,0,0-2.61-.58,3.9,3.9,0,0,0-1.86.38,1.19,1.19,0,0,0-.68,1.08,1.47,1.47,0,0,0,.53,1.19,7.38,7.38,0,0,0,2.08,1,10.38,10.38,0,0,1,1.88.84,2.76,2.76,0,0,1,.88.85A2.06,2.06,0,0,1,484.5,125.78Z" transform="translate(-48.05 -97.59)"/><path d="M489.48,127.67a6.75,6.75,0,0,0,1.44-.14v.7a4.63,4.63,0,0,1-1.46.21,2.4,2.4,0,0,1-1.87-.68,3.14,3.14,0,0,1-.6-2.12v-6.17h-1.41V119l1.41-.4.44-2.16h.45v2.31h2.8v.76h-2.8v6a2.74,2.74,0,0,0,.39,1.63A1.4,1.4,0,0,0,489.48,127.67Z" transform="translate(-48.05 -97.59)"/><path d="M498.91,125.78a2.28,2.28,0,0,1-1,2,4.73,4.73,0,0,1-2.76.69,6.67,6.67,0,0,1-3.05-.59v-.94a6.74,6.74,0,0,0,3.05.72,3.9,3.9,0,0,0,2.14-.47,1.43,1.43,0,0,0,.74-1.25,1.51,1.51,0,0,0-.59-1.21,6.47,6.47,0,0,0-1.92-1,11.51,11.51,0,0,1-2-.89,2.62,2.62,0,0,1-.87-.85,2.06,2.06,0,0,1-.3-1.14,2,2,0,0,1,.9-1.7,4.35,4.35,0,0,1,2.52-.62,7.52,7.52,0,0,1,2.94.58l-.33.79a6.84,6.84,0,0,0-2.61-.58,3.83,3.83,0,0,0-1.85.38,1.2,1.2,0,0,0-.69,1.08,1.5,1.5,0,0,0,.53,1.19,7.53,7.53,0,0,0,2.08,1,10.07,10.07,0,0,1,1.88.84,2.8,2.8,0,0,1,.89.85A2.15,2.15,0,0,1,498.91,125.78Z" transform="translate(-48.05 -97.59)"/><line x1="73.24" y1="62.26" x2="73.24" y2="113.08"/><line class="cls-7" x1="73.24" y1="62.26" x2="73.24" y2="104.13"/><polygon class="cls-8" points="67.69 99.92 73.24 102.28 78.8 99.92 73.24 113.08 67.69 99.92"/><line x1="29.58" y1="32.73" x2="29.58" y2="83.56"/><line class="cls-7" x1="29.58" y1="32.73" x2="29.58" y2="74.6"/><polygon class="cls-8" points="24.02 70.39 29.58 72.75 35.13 70.39 29.58 83.56 24.02 70.39"/><line x1="441.22" y1="40.55" x2="450.9" y2="68.63"/><line class="cls-7" x1="441.22" y1="40.55" x2="447.98" y2="60.17"/><polygon class="cls-8" points="441.36 57.99 447.38 58.41 451.86 54.37 450.9 68.63 441.36 57.99"/><path d="M271.5,450.06h-.9v-12h-4.18v-.84h9.26v.84H271.5Z" transform="translate(-48.05 -97.59)"/><path d="M284,450.06v-6.2a3,3,0,0,0-.61-2.09,2.43,2.43,0,0,0-1.88-.66A3.25,3.25,0,0,0,279,442a4.08,4.08,0,0,0-.8,2.81v5.27h-.87V436.38h.87v4.36l0,1.22h.06a3.19,3.19,0,0,1,1.36-1.25,4.68,4.68,0,0,1,2-.39c2.16,0,3.25,1.17,3.25,3.49v6.25Z" transform="translate(-48.05 -97.59)"/><path d="M291.84,450.24a4.16,4.16,0,0,1-3.25-1.29,5.17,5.17,0,0,1-1.16-3.59,5.59,5.59,0,0,1,1.12-3.66,3.71,3.71,0,0,1,3-1.38,3.27,3.27,0,0,1,2.67,1.18,4.87,4.87,0,0,1,1,3.2v.7h-6.88a4.53,4.53,0,0,0,.92,3,3.24,3.24,0,0,0,2.58,1,7.75,7.75,0,0,0,1.44-.12,9.49,9.49,0,0,0,1.57-.49v.79a7.58,7.58,0,0,1-1.5.48A8.76,8.76,0,0,1,291.84,450.24Zm-.26-9.14a2.86,2.86,0,0,0-2.21.91,4.29,4.29,0,0,0-1,2.62h5.91a4.18,4.18,0,0,0-.72-2.6A2.39,2.39,0,0,0,291.58,441.1Z" transform="translate(-48.05 -97.59)"/><path d="M312.51,443.51a6.53,6.53,0,0,1-1.69,4.89,6.86,6.86,0,0,1-5,1.66h-3.07V437.21h3.47a5.63,5.63,0,0,1,6.28,6.3Zm-1,0A4.93,4.93,0,0,0,306,438h-2.37v11.27h2.13Q311.54,449.27,311.54,443.55Z" transform="translate(-48.05 -97.59)"/><path d="M319,440.32a6.89,6.89,0,0,1,1.3.13l-.17.83a5.07,5.07,0,0,0-1.24-.15,2.41,2.41,0,0,0-2,1,4.23,4.23,0,0,0-.78,2.62v5.27h-.87v-9.55H316l.09,1.72h.06a4.07,4.07,0,0,1,1.26-1.48A2.88,2.88,0,0,1,319,440.32Z" transform="translate(-48.05 -97.59)"/><path d="M328.05,450.06l-.22-1.51h-.07a4.48,4.48,0,0,1-1.48,1.3,3.92,3.92,0,0,1-1.8.39,3.13,3.13,0,0,1-2.19-.72,2.59,2.59,0,0,1-.78-2,2.46,2.46,0,0,1,1.17-2.17,6.28,6.28,0,0,1,3.37-.82l1.82,0v-.63a3.24,3.24,0,0,0-.56-2.06,2.15,2.15,0,0,0-1.78-.69,6,6,0,0,0-2.75.73l-.33-.75a7.33,7.33,0,0,1,3.11-.74,3.07,3.07,0,0,1,2.35.82,3.57,3.57,0,0,1,.78,2.55v6.35Zm-3.51-.61a3.3,3.3,0,0,0,2.41-.88,3.25,3.25,0,0,0,.88-2.43v-.94l-1.67.07a6.18,6.18,0,0,0-2.87.63A2,2,0,0,0,323,449,2.27,2.27,0,0,0,324.54,449.45Z" transform="translate(-48.05 -97.59)"/><path d="M331.66,437.85c0-.56.19-.84.56-.84a.47.47,0,0,1,.42.22,1,1,0,0,1,.16.62,1.07,1.07,0,0,1-.16.63.48.48,0,0,1-.42.23C331.85,438.71,331.66,438.42,331.66,437.85Zm1,12.21h-.87v-9.55h.87Z" transform="translate(-48.05 -97.59)"/><path d="M342.52,450.06v-6.2a3,3,0,0,0-.61-2.09,2.43,2.43,0,0,0-1.88-.66,3.25,3.25,0,0,0-2.51.87,4.09,4.09,0,0,0-.79,2.81v5.27h-.87v-9.55h.73l.17,1.31h.05a3.59,3.59,0,0,1,3.32-1.5c2.16,0,3.25,1.17,3.25,3.49v6.25Z" transform="translate(-48.05 -97.59)"/><line x1="463.48" y1="30.21" x2="494.16" y2="44.91"/><line class="cls-7" x1="463.48" y1="30.21" x2="486.09" y2="41.04"/><polygon class="cls-8" points="479.89 44.23 484.42 40.24 484.69 34.21 494.16 44.91 479.89 44.23"/><path d="M256.28,125.77h-.91v-12H251.2v-.85h9.25v.85h-4.17Z" transform="translate(-48.05 -97.59)"/><path d="M268.8,125.77v-6.19a3.06,3.06,0,0,0-.6-2.1,2.44,2.44,0,0,0-1.88-.65,3.23,3.23,0,0,0-2.51.86,4.08,4.08,0,0,0-.8,2.81v5.27h-.87V112.1H263v4.35l0,1.22H263a3.22,3.22,0,0,1,1.35-1.25,4.71,4.71,0,0,1,2-.39c2.17,0,3.25,1.17,3.25,3.49v6.25Z" transform="translate(-48.05 -97.59)"/><path d="M276.62,126a4.19,4.19,0,0,1-3.25-1.28,5.17,5.17,0,0,1-1.17-3.6,5.62,5.62,0,0,1,1.13-3.66,3.71,3.71,0,0,1,3-1.38,3.28,3.28,0,0,1,2.66,1.18,4.82,4.82,0,0,1,1,3.2v.7h-6.88a4.51,4.51,0,0,0,.92,3,3.24,3.24,0,0,0,2.58,1,7.56,7.56,0,0,0,1.43-.12,8.16,8.16,0,0,0,1.57-.49v.79a6.39,6.39,0,0,1-1.49.48A7.87,7.87,0,0,1,276.62,126Zm-.26-9.14a2.83,2.83,0,0,0-2.21.91,4.29,4.29,0,0,0-1,2.62h5.91a4.18,4.18,0,0,0-.72-2.6A2.39,2.39,0,0,0,276.36,116.81Z" transform="translate(-48.05 -97.59)"/><path d="M295.27,116.61a3.4,3.4,0,0,1-1.27,2.86,5.69,5.69,0,0,1-3.58,1h-2v5.31h-.9V112.92h3.15Q295.27,112.92,295.27,116.61Zm-6.84,3.08h1.77a5.31,5.31,0,0,0,3.13-.72,2.67,2.67,0,0,0,1-2.32,2.62,2.62,0,0,0-.91-2.2,4.57,4.57,0,0,0-2.83-.72h-2.13Z" transform="translate(-48.05 -97.59)"/><path d="M298.71,125.77h-.87V112.1h.87Z" transform="translate(-48.05 -97.59)"/><path d="M307.71,125.77l-.22-1.51h-.07a4.52,4.52,0,0,1-1.48,1.31,4,4,0,0,1-1.8.38,3.1,3.1,0,0,1-2.18-.72,2.56,2.56,0,0,1-.79-2,2.46,2.46,0,0,1,1.17-2.17,6.37,6.37,0,0,1,3.37-.82l1.82,0v-.63a3.24,3.24,0,0,0-.56-2.06,2.13,2.13,0,0,0-1.78-.69,5.89,5.89,0,0,0-2.75.74l-.33-.76a7.34,7.34,0,0,1,3.12-.74,3.1,3.1,0,0,1,2.35.82,3.62,3.62,0,0,1,.77,2.55v6.35Zm-3.51-.61a3,3,0,0,0,3.29-3.31v-.94l-1.67.07a6.44,6.44,0,0,0-2.87.63,1.82,1.82,0,0,0-.85,1.66,1.76,1.76,0,0,0,.55,1.39A2.22,2.22,0,0,0,304.2,125.16Z" transform="translate(-48.05 -97.59)"/><path d="M309.85,116.22h.9l2,5.36c.61,1.65,1,2.76,1.16,3.33H314c.24-.75.65-1.88,1.2-3.38l2-5.31h.9l-4.28,11.1a9.32,9.32,0,0,1-.87,1.83,2.4,2.4,0,0,1-.82.71,2.49,2.49,0,0,1-1.14.24,3.75,3.75,0,0,1-1.12-.19v-.75a4.3,4.3,0,0,0,1.1.14,1.48,1.48,0,0,0,.79-.21,1.89,1.89,0,0,0,.62-.66A7.54,7.54,0,0,0,313,127c.25-.64.4-1,.47-1.25Z" transform="translate(-48.05 -97.59)"/><path d="M323.26,117H321v8.8h-.87V117h-1.77v-.51l1.77-.32v-.74a4.18,4.18,0,0,1,.65-2.58,2.51,2.51,0,0,1,2.11-.82,5.36,5.36,0,0,1,1.58.24l-.2.75a4.87,4.87,0,0,0-1.4-.22,1.61,1.61,0,0,0-1.44.61,3.39,3.39,0,0,0-.43,2v.89h2.25Zm1.72-3.41c0-.56.19-.84.56-.84a.47.47,0,0,1,.42.22,1,1,0,0,1,.16.62,1,1,0,0,1-.16.63.48.48,0,0,1-.42.23C325.17,114.42,325,114.13,325,113.56Zm1,12.21h-.87v-9.55H326Z" transform="translate(-48.05 -97.59)"/><path d="M333,126a4.17,4.17,0,0,1-3.24-1.28,5.17,5.17,0,0,1-1.17-3.6,5.62,5.62,0,0,1,1.13-3.66,3.71,3.71,0,0,1,3-1.38,3.29,3.29,0,0,1,2.66,1.18,4.87,4.87,0,0,1,1,3.2v.7h-6.88a4.46,4.46,0,0,0,.92,3,3.22,3.22,0,0,0,2.57,1,7.6,7.6,0,0,0,1.44-.12,8.38,8.38,0,0,0,1.57-.49v.79a6.55,6.55,0,0,1-1.49.48A8,8,0,0,1,333,126Zm-.25-9.14a2.87,2.87,0,0,0-2.22.91,4.29,4.29,0,0,0-1,2.62h5.91a4.19,4.19,0,0,0-.73-2.6A2.37,2.37,0,0,0,332.78,116.81Z" transform="translate(-48.05 -97.59)"/><path d="M339.92,125.77h-.87V112.1h.87Z" transform="translate(-48.05 -97.59)"/><path d="M346.62,116a4,4,0,0,1,1.8.38,3.57,3.57,0,0,1,1.35,1.29h.05c0-.73-.05-1.46-.05-2.17V112.1h.86v13.67h-.57l-.22-1.46h-.07a3.54,3.54,0,0,1-3.13,1.64,3.73,3.73,0,0,1-3-1.23,5.4,5.4,0,0,1-1.05-3.59,6,6,0,0,1,1-3.79A3.61,3.61,0,0,1,346.62,116Zm0,.8a2.7,2.7,0,0,0-2.35,1.09,5.5,5.5,0,0,0-.79,3.19c0,2.71,1.06,4.06,3.16,4.06a2.84,2.84,0,0,0,2.37-.94,4.93,4.93,0,0,0,.76-3.1V121a5.33,5.33,0,0,0-.74-3.18A2.84,2.84,0,0,0,346.62,116.83Z" transform="translate(-48.05 -97.59)"/><line x1="257.32" y1="203.42" x2="257.32" y2="219.26"/><line class="cls-9" x1="257.32" y1="203.42" x2="257.32" y2="204.92"/><line class="cls-10" x1="257.32" y1="207.42" x2="257.32" y2="210.54"/><line class="cls-9" x1="257.32" y1="211.79" x2="257.32" y2="213.29"/><polygon class="cls-11" points="253.62 210.48 257.32 212.05 261.03 210.48 257.32 219.26 253.62 210.48"/><line x1="190.06" y1="203.42" x2="213.18" y2="216.26"/><line class="cls-9" x1="190.06" y1="203.42" x2="191.38" y2="204.15"/><line class="cls-12" x1="194.77" y1="206.03" x2="204.95" y2="211.69"/><line class="cls-9" x1="206.65" y1="212.63" x2="207.96" y2="213.36"/><polygon class="cls-11" points="203.71 215.23 206.88 212.76 207.3 208.76 213.18 216.26 203.71 215.23"/><path d="M283.34,328.05a2,2,0,0,1-.79,1.7,3.24,3.24,0,0,1-2.09.63,6.56,6.56,0,0,1-2.41-.35v-.59a6.16,6.16,0,0,0,2.36.39,2.62,2.62,0,0,0,1.68-.49,1.52,1.52,0,0,0,.61-1.26,1.43,1.43,0,0,0-.2-.81,1.86,1.86,0,0,0-.67-.58,7.61,7.61,0,0,0-1.36-.57,4.62,4.62,0,0,1-1.81-1,1.9,1.9,0,0,1-.5-1.39,1.92,1.92,0,0,1,.75-1.57,3,3,0,0,1,1.94-.61,5.54,5.54,0,0,1,2.26.46l-.21.51a5.4,5.4,0,0,0-2-.44,2.4,2.4,0,0,0-1.51.44,1.42,1.42,0,0,0-.57,1.19,1.5,1.5,0,0,0,.18.78,1.48,1.48,0,0,0,.56.55,7.33,7.33,0,0,0,1.35.58,7.67,7.67,0,0,1,1.51.68,2.12,2.12,0,0,1,.73.73A2,2,0,0,1,283.34,328.05Z" transform="translate(-48.05 -97.59)"/><path d="M285.59,330.26H285v-9.12h.58Z" transform="translate(-48.05 -97.59)"/><path d="M287.64,322.12c0-.37.12-.56.37-.56a.32.32,0,0,1,.28.15.67.67,0,0,1,.1.41.73.73,0,0,1-.1.42.32.32,0,0,1-.28.15C287.76,322.69,287.64,322.5,287.64,322.12Zm.66,8.14h-.58v-6.37h.58Z" transform="translate(-48.05 -97.59)"/><path d="M294.87,330.26v-4.13a2,2,0,0,0-.4-1.4,1.63,1.63,0,0,0-1.25-.43,2.2,2.2,0,0,0-1.68.57,2.76,2.76,0,0,0-.53,1.88v3.51h-.58v-6.37h.49l.12.88h0a2.39,2.39,0,0,1,2.21-1c1.45,0,2.17.77,2.17,2.33v4.16Z" transform="translate(-48.05 -97.59)"/><path d="M302.48,323.89v.41l-1.32.08a2.27,2.27,0,0,1,.53,1.44,2,2,0,0,1-.61,1.49,2.33,2.33,0,0,1-1.65.57,4.21,4.21,0,0,1-.61,0,1.41,1.41,0,0,0-.52.43.8.8,0,0,0-.19.52.47.47,0,0,0,.24.44,1.48,1.48,0,0,0,.77.14h1.12a2.54,2.54,0,0,1,1.58.42,1.45,1.45,0,0,1,.55,1.24,1.78,1.78,0,0,1-.81,1.56,4.23,4.23,0,0,1-2.33.54,3.2,3.2,0,0,1-1.86-.46,1.49,1.49,0,0,1-.66-1.29,1.51,1.51,0,0,1,.41-1.09,2.09,2.09,0,0,1,1.1-.59,1.15,1.15,0,0,1-.46-.35.79.79,0,0,1-.17-.52,1.36,1.36,0,0,1,.81-1.12,1.81,1.81,0,0,1-.87-.72,2.12,2.12,0,0,1-.31-1.12,2,2,0,0,1,.61-1.53,2.25,2.25,0,0,1,1.64-.58,3.06,3.06,0,0,1,1,.12Zm-5.16,7.45c0,.87.65,1.31,1.95,1.31,1.68,0,2.51-.53,2.51-1.6a.92.92,0,0,0-.39-.83,2.41,2.41,0,0,0-1.27-.26h-1C297.91,330,297.32,330.42,297.32,331.34Zm.49-5.46a1.45,1.45,0,0,0,.45,1.14,1.68,1.68,0,0,0,1.2.41,1.71,1.71,0,0,0,1.22-.4,1.55,1.55,0,0,0,.42-1.17,1.62,1.62,0,0,0-.43-1.23,1.74,1.74,0,0,0-1.23-.4,1.61,1.61,0,0,0-1.19.43A1.66,1.66,0,0,0,297.81,325.88Z" transform="translate(-48.05 -97.59)"/><path d="M307.65,330.26h-.6V321.7h4.69v.55h-4.09v3.63h3.86v.56h-3.86Z" transform="translate(-48.05 -97.59)"/><path d="M315.5,330.38a2.79,2.79,0,0,1-2.17-.86,3.47,3.47,0,0,1-.77-2.39,3.72,3.72,0,0,1,.75-2.44,2.48,2.48,0,0,1,2-.92,2.17,2.17,0,0,1,1.77.78,3.24,3.24,0,0,1,.65,2.14v.47h-4.58a3,3,0,0,0,.61,2,2.15,2.15,0,0,0,1.72.69,5.54,5.54,0,0,0,1-.07,6.59,6.59,0,0,0,1-.33V330a4.18,4.18,0,0,1-1,.32A5.27,5.27,0,0,1,315.5,330.38Zm-.17-6.09a1.93,1.93,0,0,0-1.48.6,2.87,2.87,0,0,0-.65,1.75h3.94a2.78,2.78,0,0,0-.48-1.73A1.57,1.57,0,0,0,315.33,324.29Z" transform="translate(-48.05 -97.59)"/><path d="M322.08,330.38a2.78,2.78,0,0,1-2.16-.86,3.42,3.42,0,0,1-.78-2.39,3.72,3.72,0,0,1,.75-2.44,2.5,2.5,0,0,1,2-.92,2.17,2.17,0,0,1,1.77.78,3.29,3.29,0,0,1,.65,2.14v.47h-4.59a3,3,0,0,0,.62,2,2.14,2.14,0,0,0,1.71.69,5.39,5.39,0,0,0,1-.07,6.34,6.34,0,0,0,1-.33V330a4.11,4.11,0,0,1-1,.32A5.2,5.2,0,0,1,322.08,330.38Zm-.16-6.09a1.91,1.91,0,0,0-1.48.6,2.87,2.87,0,0,0-.65,1.75h3.94a2.78,2.78,0,0,0-.48-1.73A1.59,1.59,0,0,0,321.92,324.29Z" transform="translate(-48.05 -97.59)"/><path d="M328.43,323.77a2.65,2.65,0,0,1,1.2.25,2.51,2.51,0,0,1,.9.86h0q0-.74,0-1.44v-2.3h.57v9.12h-.38l-.14-1h-.05a2.36,2.36,0,0,1-2.09,1.09,2.47,2.47,0,0,1-2-.82,3.59,3.59,0,0,1-.7-2.39,4,4,0,0,1,.69-2.53A2.41,2.41,0,0,1,328.43,323.77Zm0,.53a1.81,1.81,0,0,0-1.57.73,3.64,3.64,0,0,0-.52,2.13q0,2.7,2.1,2.7a1.92,1.92,0,0,0,1.58-.62,3.31,3.31,0,0,0,.51-2.07v-.1a3.57,3.57,0,0,0-.5-2.13A1.88,1.88,0,0,0,328.43,324.3Z" transform="translate(-48.05 -97.59)"/><path d="M323.47,350.13v-8.57h.6v8.57Z" transform="translate(-48.05 -97.59)"/><path d="M330.79,350.13V346a2,2,0,0,0-.4-1.4,1.64,1.64,0,0,0-1.26-.43,2.18,2.18,0,0,0-1.67.57,2.76,2.76,0,0,0-.53,1.88v3.51h-.58v-6.37h.49l.11.87h0a2.4,2.4,0,0,1,2.21-1c1.44,0,2.17.77,2.17,2.32v4.17Z" transform="translate(-48.05 -97.59)"/><path d="M334,350.13h-.58V341H334Z" transform="translate(-48.05 -97.59)"/><path d="M340,350.13l-.15-1h-.05a3,3,0,0,1-1,.87,2.65,2.65,0,0,1-1.2.26,2.07,2.07,0,0,1-1.46-.48,1.72,1.72,0,0,1-.52-1.33,1.65,1.65,0,0,1,.77-1.45,4.19,4.19,0,0,1,2.25-.54l1.21,0V346a2.2,2.2,0,0,0-.36-1.37,1.45,1.45,0,0,0-1.19-.47,4,4,0,0,0-1.84.5l-.21-.51a4.79,4.79,0,0,1,2.07-.49,2.06,2.06,0,0,1,1.57.55,2.39,2.39,0,0,1,.52,1.69v4.24Zm-2.35-.41a2.18,2.18,0,0,0,1.61-.58,2.15,2.15,0,0,0,.59-1.62v-.63l-1.11.05a4.16,4.16,0,0,0-1.92.42,1.35,1.35,0,0,0-.2,2A1.48,1.48,0,0,0,337.66,349.72Z" transform="translate(-48.05 -97.59)"/><path d="M346.94,350.13V346a2.07,2.07,0,0,0-.4-1.4,1.64,1.64,0,0,0-1.26-.43,2.18,2.18,0,0,0-1.67.57,2.71,2.71,0,0,0-.53,1.88v3.51h-.58v-6.37H343l.11.87h0a2.4,2.4,0,0,1,2.21-1c1.44,0,2.16.77,2.16,2.32v4.17Z" transform="translate(-48.05 -97.59)"/><path d="M352.15,350.25a2.79,2.79,0,0,1-2.17-.86,3.47,3.47,0,0,1-.77-2.39,3.72,3.72,0,0,1,.75-2.44,2.45,2.45,0,0,1,2-.92,2.17,2.17,0,0,1,1.77.78,3.24,3.24,0,0,1,.65,2.14V347h-4.58a3,3,0,0,0,.61,2,2.15,2.15,0,0,0,1.72.69,4.65,4.65,0,0,0,1-.08,6.38,6.38,0,0,0,1-.32v.52a4.18,4.18,0,0,1-1,.32A5.27,5.27,0,0,1,352.15,350.25Zm-.17-6.1a1.94,1.94,0,0,0-1.48.61,2.87,2.87,0,0,0-.65,1.75h3.94a2.76,2.76,0,0,0-.48-1.73A1.59,1.59,0,0,0,352,344.15Z" transform="translate(-48.05 -97.59)"/><path d="M360,350.13h-.59v-8.57h4.69v.56H360v3.63h3.87v.55H360Z" transform="translate(-48.05 -97.59)"/><path d="M367.88,350.25a2.79,2.79,0,0,1-2.17-.86,3.42,3.42,0,0,1-.78-2.39,3.72,3.72,0,0,1,.75-2.44,2.47,2.47,0,0,1,2-.92,2.17,2.17,0,0,1,1.77.78,3.29,3.29,0,0,1,.65,2.14V347h-4.59a3,3,0,0,0,.62,2,2.15,2.15,0,0,0,1.72.69,4.49,4.49,0,0,0,.95-.08,6.17,6.17,0,0,0,1.05-.32v.52a4.11,4.11,0,0,1-1,.32A5.16,5.16,0,0,1,367.88,350.25Zm-.17-6.1a1.92,1.92,0,0,0-1.48.61,2.87,2.87,0,0,0-.65,1.75h3.94a2.76,2.76,0,0,0-.48-1.73A1.6,1.6,0,0,0,367.71,344.15Z" transform="translate(-48.05 -97.59)"/><path d="M374.46,350.25a2.77,2.77,0,0,1-2.16-.86,3.42,3.42,0,0,1-.78-2.39,3.72,3.72,0,0,1,.75-2.44,2.45,2.45,0,0,1,2-.92,2.21,2.21,0,0,1,1.78.78,3.29,3.29,0,0,1,.65,2.14V347h-4.59a3,3,0,0,0,.61,2,2.15,2.15,0,0,0,1.72.69,4.65,4.65,0,0,0,1-.08,6.38,6.38,0,0,0,1-.32v.52a4,4,0,0,1-1,.32A5.27,5.27,0,0,1,374.46,350.25Zm-.17-6.1a2,2,0,0,0-1.48.61,2.94,2.94,0,0,0-.65,1.75h3.94a2.76,2.76,0,0,0-.48-1.73A1.57,1.57,0,0,0,374.29,344.15Z" transform="translate(-48.05 -97.59)"/><path d="M380.81,343.64a2.58,2.58,0,0,1,1.19.25,2.36,2.36,0,0,1,.9.86h0c0-.49,0-1,0-1.45V341h.58v9.12h-.38l-.15-1h-.05a2.36,2.36,0,0,1-2.08,1.09,2.53,2.53,0,0,1-2-.82,3.64,3.64,0,0,1-.69-2.39,4,4,0,0,1,.69-2.53A2.41,2.41,0,0,1,380.81,343.64Zm0,.53a1.8,1.8,0,0,0-1.57.73,3.64,3.64,0,0,0-.53,2.13c0,1.8.71,2.7,2.11,2.7a1.93,1.93,0,0,0,1.58-.62,3.31,3.31,0,0,0,.5-2.07v-.1a3.58,3.58,0,0,0-.49-2.13A1.9,1.9,0,0,0,380.81,344.17Z" transform="translate(-48.05 -97.59)"/><line x1="405.32" y1="203.42" x2="347.06" y2="237.32"/><line class="cls-9" x1="405.32" y1="203.42" x2="404.03" y2="204.17"/><line class="cls-13" x1="400.66" y1="206.13" x2="355.2" y2="232.58"/><line class="cls-9" x1="353.52" y1="233.56" x2="352.22" y2="234.32"/><polygon class="cls-11" points="352.79 229.71 353.29 233.7 356.51 236.11 347.06 237.32 352.79 229.71"/><line x1="105.06" y1="203.42" x2="163.32" y2="237.32"/><line class="cls-9" x1="105.06" y1="203.42" x2="106.36" y2="204.17"/><line class="cls-13" x1="109.72" y1="206.13" x2="155.18" y2="232.58"/><line class="cls-9" x1="156.87" y1="233.56" x2="158.16" y2="234.32"/><polygon class="cls-11" points="153.87 236.11 157.09 233.7 157.6 229.71 163.32 237.32 153.87 236.11"/><path d="M220.73,350.13v-8.57h.6v8.57Z" transform="translate(-48.05 -97.59)"/><path d="M228.05,350.13V346a2,2,0,0,0-.4-1.4,1.64,1.64,0,0,0-1.26-.43,2.18,2.18,0,0,0-1.67.57,2.76,2.76,0,0,0-.53,1.88v3.51h-.58v-6.37h.49l.11.87h0a2.4,2.4,0,0,1,2.21-1c1.44,0,2.16.77,2.16,2.32v4.17Z" transform="translate(-48.05 -97.59)"/><path d="M231.27,350.13h-.58V341h.58Z" transform="translate(-48.05 -97.59)"/><path d="M237.27,350.13l-.15-1h-.05a3.09,3.09,0,0,1-1,.87,2.65,2.65,0,0,1-1.2.26,2.07,2.07,0,0,1-1.46-.48,1.72,1.72,0,0,1-.52-1.33,1.65,1.65,0,0,1,.77-1.45,4.19,4.19,0,0,1,2.25-.54l1.21,0V346a2.2,2.2,0,0,0-.36-1.37,1.45,1.45,0,0,0-1.19-.47,4,4,0,0,0-1.84.5l-.21-.51a4.79,4.79,0,0,1,2.07-.49,2.06,2.06,0,0,1,1.57.55,2.39,2.39,0,0,1,.52,1.69v4.24Zm-2.35-.41a2,2,0,0,0,2.2-2.2v-.63l-1.11.05a4.16,4.16,0,0,0-1.92.42,1.35,1.35,0,0,0-.2,2A1.48,1.48,0,0,0,234.92,349.72Z" transform="translate(-48.05 -97.59)"/><path d="M244.2,350.13V346a2,2,0,0,0-.41-1.4,1.61,1.61,0,0,0-1.25-.43,2.18,2.18,0,0,0-1.67.57,2.71,2.71,0,0,0-.53,1.88v3.51h-.58v-6.37h.49l.11.87h0a2.4,2.4,0,0,1,2.21-1c1.44,0,2.16.77,2.16,2.32v4.17Z" transform="translate(-48.05 -97.59)"/><path d="M249.41,350.25a2.79,2.79,0,0,1-2.17-.86,3.47,3.47,0,0,1-.77-2.39,3.72,3.72,0,0,1,.75-2.44,2.45,2.45,0,0,1,2-.92,2.17,2.17,0,0,1,1.77.78,3.24,3.24,0,0,1,.65,2.14V347h-4.58a3,3,0,0,0,.61,2,2.15,2.15,0,0,0,1.72.69,4.65,4.65,0,0,0,1-.08,6.38,6.38,0,0,0,1-.32v.52a4.18,4.18,0,0,1-1,.32A5.27,5.27,0,0,1,249.41,350.25Zm-.17-6.1a1.92,1.92,0,0,0-1.48.61,2.87,2.87,0,0,0-.65,1.75h3.94a2.76,2.76,0,0,0-.48-1.73A1.59,1.59,0,0,0,249.24,344.15Z" transform="translate(-48.05 -97.59)"/><path d="M257.28,350.13h-.59v-8.57h4.69v.56h-4.1v3.63h3.87v.55h-3.87Z" transform="translate(-48.05 -97.59)"/><path d="M265.13,350.25a2.78,2.78,0,0,1-2.16-.86,3.42,3.42,0,0,1-.78-2.39,3.72,3.72,0,0,1,.75-2.44,2.46,2.46,0,0,1,2-.92,2.19,2.19,0,0,1,1.78.78,3.29,3.29,0,0,1,.65,2.14V347H262.8a3,3,0,0,0,.62,2,2.14,2.14,0,0,0,1.71.69,4.53,4.53,0,0,0,1-.08,6.17,6.17,0,0,0,1.05-.32v.52a4.11,4.11,0,0,1-1,.32A5.2,5.2,0,0,1,265.13,350.25Zm-.17-6.1a1.91,1.91,0,0,0-1.47.61,2.87,2.87,0,0,0-.65,1.75h3.94a2.7,2.7,0,0,0-.49-1.73A1.57,1.57,0,0,0,265,344.15Z" transform="translate(-48.05 -97.59)"/><path d="M271.72,350.25a2.75,2.75,0,0,1-2.16-.86,3.42,3.42,0,0,1-.78-2.39,3.72,3.72,0,0,1,.75-2.44,2.45,2.45,0,0,1,2-.92,2.21,2.21,0,0,1,1.78.78,3.29,3.29,0,0,1,.65,2.14V347h-4.59a3,3,0,0,0,.61,2,2.15,2.15,0,0,0,1.72.69,4.65,4.65,0,0,0,1-.08,6.38,6.38,0,0,0,1-.32v.52a4,4,0,0,1-1,.32A5.27,5.27,0,0,1,271.72,350.25Zm-.17-6.1a2,2,0,0,0-1.48.61,2.94,2.94,0,0,0-.65,1.75h3.94a2.76,2.76,0,0,0-.48-1.73A1.57,1.57,0,0,0,271.55,344.15Z" transform="translate(-48.05 -97.59)"/><path d="M278.07,343.64a2.58,2.58,0,0,1,1.19.25,2.36,2.36,0,0,1,.9.86h0c0-.49,0-1,0-1.45V341h.58v9.12h-.38l-.15-1h0a2.36,2.36,0,0,1-2.08,1.09,2.53,2.53,0,0,1-2-.82,3.64,3.64,0,0,1-.69-2.39,4,4,0,0,1,.69-2.53A2.41,2.41,0,0,1,278.07,343.64Zm0,.53a1.8,1.8,0,0,0-1.57.73A3.64,3.64,0,0,0,276,347c0,1.8.71,2.7,2.11,2.7a1.93,1.93,0,0,0,1.58-.62,3.31,3.31,0,0,0,.5-2.07v-.1a3.58,3.58,0,0,0-.49-2.13A1.9,1.9,0,0,0,278.07,344.17Z" transform="translate(-48.05 -97.59)"/><line x1="327.18" y1="203.42" x2="304.06" y2="216.26"/><line class="cls-9" x1="327.18" y1="203.42" x2="325.87" y2="204.15"/><line class="cls-12" x1="322.47" y1="206.03" x2="312.29" y2="211.69"/><line class="cls-9" x1="310.59" y1="212.63" x2="309.28" y2="213.36"/><polygon class="cls-11" points="309.94 208.76 310.36 212.76 313.54 215.23 304.06 216.26 309.94 208.76"/></svg>