<svg id="Layer_1" data-name="Layer 1" xmlns="http://www.w3.org/2000/svg" viewBox="0 0 492.34 285.23"><defs><style>.cls-1,.cls-5{fill:#e5e5e5;}.cls-10,.cls-2,.cls-8,.cls-9{fill:none;}.cls-10,.cls-2{stroke:gray;}.cls-10,.cls-2,.cls-4,.cls-5,.cls-6,.cls-7,.cls-8,.cls-9{stroke-miterlimit:10;}.cls-2,.cls-9{stroke-width:4px;}.cls-2{stroke-dasharray:6 3;}.cls-3{fill:gray;}.cls-4,.cls-6,.cls-7{fill:#fff;}.cls-4,.cls-5,.cls-6,.cls-7,.cls-9{stroke:#000;}.cls-6,.cls-8,.cls-9{stroke-linecap:round;}.cls-6,.cls-7,.cls-8{stroke-width:2px;}.cls-8{stroke:#fff;}.cls-10{stroke-width:3px;stroke-dasharray:5 3;}</style></defs><title>sling-diagram</title><path class="cls-1" d="M432.87,301.38a11.79,11.79,0,0,1-10.75-7,11.75,11.75,0,0,1-.24-9L473.78,150a11.79,11.79,0,0,1,22.72,2.91V153c.09,1.38.07,101.23.07,102.24a21.29,21.29,0,0,1-.66,5.89A11.85,11.85,0,0,1,492,266.3l-.1.07L439.6,299.3h0l-.31.19A11.81,11.81,0,0,1,432.87,301.38Z" transform="translate(-56.26 -141.33)"/><path d="M484.79,142.92A11.29,11.29,0,0,1,496,153h0V153c.07,1.4.08,67.48.07,102.25a20.28,20.28,0,0,1-.63,5.69,11.2,11.2,0,0,1-3.75,5l-.06.05-52,32.73h0l-.61.39a11.3,11.3,0,0,1-6.14,1.82,11.07,11.07,0,0,1-4-.75,11.28,11.28,0,0,1-6.5-14.58l51.9-135.38a11.35,11.35,0,0,1,10.54-7.25m0-1a12.28,12.28,0,0,0-11.47,7.89L421.42,285.2a12.27,12.27,0,0,0,18.13,14.7h0l52.72-33.19v0a12.15,12.15,0,0,0,4.08-5.41c.77-2,.7-6.06.7-6.06s0-101.47-.07-102.29v-.09h0a12.29,12.29,0,0,0-12.2-10.92Z" transform="translate(-56.26 -141.33)"/><path class="cls-2" d="M271.7,369.51a83.29,83.29,0,0,1-2.86,41.08" transform="translate(-56.26 -141.33)"/><polygon class="cls-3" points="209.45 235.44 215.89 230.62 223.84 231.91 212.45 216.62 209.45 235.44"/><path class="cls-4" d="M555.35,326.55" transform="translate(-56.26 -141.33)"/><path class="cls-4" d="M426.3,357.7" transform="translate(-56.26 -141.33)"/><path class="cls-4" d="M446.77,388.3" transform="translate(-56.26 -141.33)"/><path class="cls-5" d="M548.09,318.22V276a6,6,0,0,0-12,0,21,21,0,0,1-9.61,17.64L423.76,358.33a4,4,0,0,0,.87,7.13h0a21.52,21.52,0,0,1,14.18,22.14,4,4,0,0,0,6,3.78l96.23-60.59a15,15,0,0,0,7-12.69" transform="translate(-56.26 -141.33)"/><line class="cls-6" x1="486.06" y1="120.57" x2="486.06" y2="16.13"/><path class="cls-1" d="M172,300.79a11.81,11.81,0,0,1-6.41-1.9l-.31-.19h0l-52.34-32.95,0-.05a11.75,11.75,0,0,1-3.92-5.19,21.72,21.72,0,0,1-.67-5.87c0-1,0-100.87.08-102.26h0v-.08a11.76,11.76,0,0,1,7.49-9.69,11.57,11.57,0,0,1,4.22-.79,11.84,11.84,0,0,1,11,7.57L183,284.78A11.8,11.8,0,0,1,176.18,300,11.67,11.67,0,0,1,172,300.79Z" transform="translate(-56.26 -141.33)"/><path d="M120.06,141.33v1a11.35,11.35,0,0,1,10.54,7.25L182.5,285a11.3,11.3,0,0,1-6.5,14.58,11.15,11.15,0,0,1-4,.75,11.3,11.3,0,0,1-6.14-1.82l-.62-.38h0l-52-32.71-.09-.07a11.25,11.25,0,0,1-3.75-5,20.34,20.34,0,0,1-.64-5.71c0-34.75,0-100.83.07-102.19v-.07h0a11.28,11.28,0,0,1,11.21-10v-1m0,0a12.15,12.15,0,0,0-4.4.82,12.29,12.29,0,0,0-7.81,10.1h0v.1c-.09.82-.08,102.29-.08,102.29s-.06,4.06.7,6.06a12.25,12.25,0,0,0,4.09,5.41v0l52.72,33.19h0a12.27,12.27,0,0,0,18.14-14.7l-51.9-135.39a12.28,12.28,0,0,0-11.47-7.89Z" transform="translate(-56.26 -141.33)"/><path class="cls-4" d="M49.5,326" transform="translate(-56.26 -141.33)"/><path class="cls-4" d="M178.54,357.11" transform="translate(-56.26 -141.33)"/><path class="cls-4" d="M158.07,387.71" transform="translate(-56.26 -141.33)"/><path class="cls-1" d="M259.71,425.77a5.9,5.9,0,0,1-1.3-.15l-.1,0L184.24,402h0a15.91,15.91,0,0,1,3-30.67,16.29,16.29,0,0,1,2.41-.18,15.89,15.89,0,0,1,8.38,2.4l.47.29,64.67,41.36a5.84,5.84,0,0,1,2.31,3.84,5.91,5.91,0,0,1-4.93,6.72A5.69,5.69,0,0,1,259.71,425.77Z" transform="translate(-56.26 -141.33)"/><path d="M189.65,371.6a15.35,15.35,0,0,1,8.1,2.32l.32.19,64.79,41.44a5.39,5.39,0,0,1-2.4,9.66,4.65,4.65,0,0,1-.75.06,6.1,6.1,0,0,1-1.19-.13l-.07,0-74-23.62,0,0a15.41,15.41,0,0,1,5.28-29.88m0-1a16.06,16.06,0,0,0-2.49.19A16.4,16.4,0,0,0,184,402.42h0l74.25,23.7v0a6.46,6.46,0,0,0,1.4.16,5.46,5.46,0,0,0,.9-.07,6.4,6.4,0,0,0,2.82-11.48h0l-65.15-41.65h0a16.4,16.4,0,0,0-8.63-2.47Z" transform="translate(-56.26 -141.33)"/><circle class="cls-4" cx="134.04" cy="246.07" r="5.23"/><path class="cls-5" d="M56.76,317.63v-42.2a6,6,0,0,1,12,0,21,21,0,0,0,9.6,17.64l102.72,64.67a4,4,0,0,1-.86,7.13h0A21.5,21.5,0,0,0,166,387a4,4,0,0,1-6,3.78L63.77,330.2a15,15,0,0,1-7-12.69" transform="translate(-56.26 -141.33)"/><line class="cls-6" x1="6.27" y1="119.98" x2="6.27" y2="15.54"/><path class="cls-3" d="M415.11,371.05h-1.62a17.26,17.26,0,0,0-3.3.68l.91,2.86a13.32,13.32,0,0,1,4-.62v-3ZM407.43,373c-.33.17-.64.35-.95.55h0l-.05,0h0l-2.49,1.59h0l-.74.47,1.62,2.52,2.79-1.78.46-.28c.25-.16.52-.31.78-.45L407.43,373Zm-6.76,4.25-.37.24h0l0,0h-.06l-3.75,2.4,1.62,2.52,4.21-2.69-1.61-2.53Zm-6.74,4.31-3,1.93h0l-1.16.74,1.62,2.52,4.21-2.69-1.61-2.53Zm-6.74,4.31-4.22,2.7,1.62,2.52,4.21-2.69-1.61-2.53Zm-6.74,4.31L378,391.71h0l-1.74,1.12,1.62,2.52,4.21-2.69-1.61-2.53Zm-6.74,4.31-.17.11h-.2l-3.85,2.46,1.62,2.52,4.21-2.69-1.61-2.53ZM367,398.78l-4.22,2.7,1.62,2.52,4.21-2.69L367,398.78Zm-6.74,4.31-1.52,1h0l0,0h0L356,405.79l1.62,2.52,4.21-2.69-1.61-2.53Zm-6.74,4.31-4.22,2.7,1.62,2.52,4.21-2.69-1.61-2.53Zm-6.74,4.31-4.22,2.69,1.62,2.53,4.21-2.69-1.61-2.53Zm-6.56,4.54a6.31,6.31,0,0,0-1.37,2.93h0v0h0v0h0v0h0v0h-.07a7.36,7.36,0,0,0,0,1.15l3-.26a3.22,3.22,0,0,1,0-.82,3.45,3.45,0,0,1,.74-1.65l-2.3-1.92Zm2,5.88-2.54,1.59a6,6,0,0,0,.86,1.1h0l0,0h0l0,0h1.77a7.31,7.31,0,0,0,1.27.44l.68-2.92a3.4,3.4,0,0,1-2.1-1.51Zm8.23,0-4.77,1.52.91,2.86,1.17-.37h0l3.59-1.14-.91-2.86Zm7.62-2.43-4.76,1.52.91,2.86,4.76-1.52-.91-2.86Zm7.62-2.43-4.76,1.52.91,2.86,2.84-.91h0l1.92-.61-.91-2.86Zm7.62-2.43-4.76,1.52.91,2.85.8-.25,4-1.27-.92-2.85Zm7.62-2.44-4.76,1.52.91,2.86,1.78-.57,2.62-.83.37-.12-.92-2.86Zm7.63-2.43-4.77,1.52.92,2.86,4.76-1.52-.91-2.86Zm7.62-2.43-4.77,1.52.92,2.86,0,0h.05l3.06-1h0l1.57-.5-.91-2.86Zm7.62-2.43-4.76,1.52.91,2.85,4.76-1.52-.91-2.85Zm7.62-2.44-4.76,1.52.91,2.86,1-.32,1.45-.46h0l.07,0h0l0,0,2.2-.7-.92-2.86Zm7.62-2.43-4.76,1.52.91,2.86,4.77-1.52-.92-2.86Zm5.57-3.35a13.65,13.65,0,0,1-3.28,2.42l1.39,2.65a16.86,16.86,0,0,0,3.18-2.17h0l0,0h.23l0,0h0v0h0l.52-.5-2.12-2.12Zm3.32-5.55a13.21,13.21,0,0,1-1.76,3.67l2.48,1.69.33-.51h0l0-.06h0v0h0l0,0h0v0h0v0h.14v0h0v0h.07v0h0l0,0h0v0h0a16.76,16.76,0,0,0,1.11-2.39h0v0h0v0h0v0h0v0h.06v0h0v0h0v0h0c.06-.17.11-.34.16-.51l-2.87-.87Zm3.28-7-2.94.58a13.47,13.47,0,0,1,.16,4.06l3,.34h0v0h.08v0h0v0h0v0h0v0h0v0h0v0h0v0h0v0h0v0h0v0h0v0h0v0h0v0h0v0h0v0h0a15.87,15.87,0,0,0-.3-2.77Zm-3.35-7.18L425.54,379a13.35,13.35,0,0,1,2,3.52l2.79-1.1A15.76,15.76,0,0,0,429,378.7h0l0,0h0l0,0h0v0h0v0h-.15v0h0l0,0h0l0,0h0l0,0h0l0,0h0l0,0h0c-.23-.33-.47-.65-.73-1Zm-6.31-4.77-1.18,2.76a12.94,12.94,0,0,1,3.45,2.14l2-2.28c-.23-.19-.47-.39-.72-.57h0l0,0h0l0,0h0l0,0h-.16l0,0h0l0,0h-.05l0,0h0l0,0h0c-.24-.18-.48-.34-.73-.5h0l0,0h-.4l0,0h0l0,0h0a15.23,15.23,0,0,0-1.85-.93Zm-6.45-1.32v3a12.75,12.75,0,0,1,2,.16c.3,0,.6.1.9.17l.66-2.93-.3-.06h-.81a16.25,16.25,0,0,0-2.49-.19Z" transform="translate(-56.26 -141.33)"/><circle class="cls-4" cx="358.21" cy="246.52" r="5.23"/><circle class="cls-7" cx="6.27" cy="5.36" r="3.31"/><circle cx="141.49" cy="205.81" r="16.5"/><path class="cls-8" d="M186,344.78a12,12,0,0,1,11.76-9.63,12.16,12.16,0,0,1,3.43.5" transform="translate(-56.26 -141.33)"/><circle class="cls-7" cx="486.06" cy="5.95" r="3.31"/><path class="cls-3" d="M258.13,344.79a6.29,6.29,0,0,0-1.83.27h0l-3,1.09,1,2.81,2.84-1a3.48,3.48,0,0,1,.9-.12v-3Zm-7.6,2.4-3.92,1.44h0l-.73.27,1,2.81,4.69-1.73-1-2.81ZM243,350l-4.69,1.73,1,2.81,4.69-1.73L243,350Zm-7.51,2.77-4.69,1.73,1,2.81,4.69-1.73-1-2.81ZM228,355.5l-2.65,1h0l-2,.75,1,2.81,4.7-1.73-1-2.81Zm-7.51,2.76-3.31,1.23h-.14l-1.24.46,1,2.81,4.69-1.73-1-2.82ZM213,361l-1.8.67h-.08l-2.81,1,1,2.82,4.69-1.73L213,361Zm-7.51,2.77-2.23.83h0l-2.42.89,1,2.82,4.69-1.73-1-2.82Zm-7.5,2.77-4.7,1.73,1,2.82,4.69-1.73-1-2.82Zm-7.51,2.77-4.69,1.73,1,2.82,4.69-1.73-1-2.82Zm-7.48,2.8a18,18,0,0,0-2.08,1.1h0l-.07,0h-.08l0,0h-.05l0,0h-.5l0,0H180v0h-.1l0,0h0l0,0h0l0,0h0l0,0h0l0,0h0l0,0h0l-.05,0h0l0,0h0l-.05,0h0l-.06,0h0l-.13.1h0l-.18.15h0l-.11.09h0l-.07.07,2,2.25a13.55,13.55,0,0,1,3.44-2.18L183,372.14ZM176.74,377c-.22.29-.44.59-.65.89H176v0h-.15l0,0h-.07v0h-.07l0,0h-.23v0h-.06l0,0h-.14v0h0v0h0v0h0v0h0v0h0v0h0v0h0l0,0h0l0,.05h0v0h0v0h0c-.1.19-.19.38-.28.58h0l0,0h0l0,0h0v0h0v0h0l0,0h0l0,0h0v0h0v0h0v0h0v0h0v0h0l-.21.52,2.81,1.07a13.17,13.17,0,0,1,2-3.55L176.74,377Zm-3.25,7.23-.09.58h0v0h0v0h0v0h0v0h0v0h0v0h0v0h0v0h0v0h0v0h0v0h0v0h0v0h0v0h0v0h0v0h0v0h0v0h0v0h0v0h0v0h0v0h0v0h0v0h0v0h0v0h0v0h0v0h0v0h0v0h0v0h0v0h0v0h0v0h0v0h0c0,.47.06.93.11,1.39l3-.38a13.54,13.54,0,0,1,.1-4.07l-2.95-.53Zm3.38,7-2.86.91a16.47,16.47,0,0,0,2.22,4.46l2.45-1.72a13.82,13.82,0,0,1-1.81-3.65Zm3.39,5.51-2.09,2.15.58.54h0l.11.09h0l.06.06h0l0,0h0l0,0h0l0,0h0l0,0h0l0,0h0l0,0h0l0,0h0l0,0h0l0,0h0l0,0h0l0,0h.05l0,0h0l0,0h0l0,0h0l0,0h.09l0,0h.08l0,0h2.12l.31.16h0l1.36-2.67-.32-.17a13.64,13.64,0,0,1-3-2.2Zm5.59,3.28-.85,2.87.41.12h.41a16.88,16.88,0,0,0,2.81.42h1.31l-.06-3h-.26a13.32,13.32,0,0,1-3.77-.54Zm10.29-1.14a13.79,13.79,0,0,1-3.83,1.41l.6,2.94h.26a16.06,16.06,0,0,0,3.73-1.31H197l.6-.32-1.45-2.62Zm6.31-4.36-4.09,2.88,1.72,2.45,4.09-2.88-1.72-2.45Zm6.54-4.61-4.09,2.88,1.73,2.46.57-.41,3.51-2.47L209,389.89Zm6.54-4.6-4.09,2.88,1.73,2.45,3-2.14,1.06-.74-1.73-2.45Zm6.54-4.61L218,383.56l1.73,2.45,1-.69h0l2.86-2,.22-.15-1.73-2.46Zm6.54-4.6L224.52,379l1.73,2.45,1-.7h0l0,0h0L229,379.5h0l0,0h0l0,0h0l1.26-.89-1.73-2.45Zm6.54-4.61-4.08,2.88,1.72,2.45c1.38-1,2.74-1.93,4.09-2.88l-1.73-2.45Zm6.55-4.61-4.09,2.88,1.72,2.46.45-.32,3.64-2.56-1.72-2.46Zm6.54-4.6-4.09,2.88,1.73,2.45,3.93-2.77.15-.11-1.72-2.45Zm6.54-4.61-4.09,2.88,1.73,2.45,4.09-2.88-1.73-2.45Zm5.91-4.26a2.89,2.89,0,0,1-.35.35l-3.11,2.18,1.73,2.46,3.32-2.34h.33a3.47,3.47,0,0,0,.32-.34l-2.24-2Zm2.94-5.46L261,349.46a3.38,3.38,0,0,1,.37,2.56l2.91.74a5.79,5.79,0,0,0,.19-1.36h0a6.63,6.63,0,0,0-.88-2.87Zm-5.5-3.14v3a3.38,3.38,0,0,1,1.61.41l.21.13,1.61-2.53-.08-.05h-.16l-.1-.06h-.05a6.31,6.31,0,0,0-3-.78Z" transform="translate(-56.26 -141.33)"/><circle class="cls-4" cx="134.1" cy="245.52" r="5.23"/><path class="cls-9" d="M333.06,369.51a83.29,83.29,0,0,0,2.86,41.08" transform="translate(-56.26 -141.33)"/><polygon points="268.41 231.91 276.36 230.62 282.8 235.44 279.8 216.62 268.41 231.91"/><path class="cls-1" d="M415.14,403.48a16,16,0,0,1-8.65-2.54l0,0-63.59-44.77-.06-.06a5.8,5.8,0,0,1-1.35-1.64,5.9,5.9,0,0,1,6.86-8.46l72.25,26.66.26.1a15.9,15.9,0,0,1-5.68,30.74Z" transform="translate(-56.26 -141.33)"/><path d="M346.63,346.23h0a5.51,5.51,0,0,1,1.51.22l72,26.56.51.2a15.4,15.4,0,1,1-13.88,27.31l0,0-63.54-44.74-.07-.06a5.27,5.27,0,0,1-1.23-1.5,5.41,5.41,0,0,1,4.74-8m0-1a6.31,6.31,0,0,0-3,.78,6.34,6.34,0,0,0-1.12,10.45h0s63.63,44.81,63.73,44.87l0,0h0a16.41,16.41,0,0,0,23.32-21.6,16.31,16.31,0,0,0-8.54-7.48h0L348.46,345.5h0a6.64,6.64,0,0,0-1.83-.27Z" transform="translate(-56.26 -141.33)"/><circle class="cls-4" cx="358.15" cy="245.97" r="5.23"/><circle class="cls-10" cx="351.08" cy="204.46" r="16.5"/></svg>