<svg id="Layer_1" data-name="Layer 1" xmlns="http://www.w3.org/2000/svg" viewBox="0 0 492.34 296.11"><defs><style>.cls-1,.cls-3{fill:#e5e5e5;}.cls-2,.cls-4,.cls-6{fill:#fff;}.cls-2,.cls-3,.cls-4,.cls-6,.cls-7{stroke:#000;}.cls-2,.cls-3,.cls-4,.cls-6,.cls-7,.cls-8{stroke-miterlimit:10;}.cls-4,.cls-7{stroke-linecap:round;}.cls-4,.cls-6{stroke-width:2px;}.cls-5{fill:gray;}.cls-7,.cls-8{fill:none;stroke-width:4px;}.cls-8{stroke:gray;stroke-dasharray:5 3;}</style></defs><title>tactics-left</title><path class="cls-1" d="M172,301.38a11.81,11.81,0,0,1-6.41-1.9l-.31-.19h0l-52.34-32.95,0-.05a11.78,11.78,0,0,1-3.92-5.18,21.82,21.82,0,0,1-.67-5.88c0-1,0-100.87.08-102.26h0v-.08A11.78,11.78,0,0,1,131.06,150L183,285.37a11.78,11.78,0,0,1-11,16Z" transform="translate(-56.26 -130.61)"/><path d="M120.06,141.92v1a11.35,11.35,0,0,1,10.54,7.25l51.9,135.38a11.3,11.3,0,0,1-6.5,14.58,11.15,11.15,0,0,1-4,.75,11.3,11.3,0,0,1-6.14-1.82l-.62-.38h0l-52-32.71-.09-.07a11.2,11.2,0,0,1-3.75-5,20.34,20.34,0,0,1-.64-5.71c0-34.75,0-100.83.07-102.19V153h0a11.28,11.28,0,0,1,11.21-10v-1m0,0a12.15,12.15,0,0,0-4.4.82,12.29,12.29,0,0,0-7.81,10.1h0v.09c-.09.82-.08,102.29-.08,102.29s-.06,4.06.7,6.06a12.25,12.25,0,0,0,4.09,5.41v0l52.72,33.19h0a12.27,12.27,0,0,0,18.14-14.7l-51.9-135.39a12.28,12.28,0,0,0-11.47-7.89Z" transform="translate(-56.26 -130.61)"/><path class="cls-2" d="M49.5,326.55" transform="translate(-56.26 -130.61)"/><path class="cls-2" d="M178.54,357.7" transform="translate(-56.26 -130.61)"/><path class="cls-2" d="M158.07,388.3" transform="translate(-56.26 -130.61)"/><path class="cls-3" d="M56.76,318.22V276a6,6,0,0,1,12,0,21,21,0,0,0,9.6,17.64l102.72,64.67a4,4,0,0,1-.86,7.13h0A21.5,21.5,0,0,0,166,387.6a4,4,0,0,1-6,3.78L63.77,330.79a15,15,0,0,1-7-12.69" transform="translate(-56.26 -130.61)"/><line class="cls-4" x1="6.27" y1="131.29" x2="6.27" y2="26.85"/><path class="cls-1" d="M432.87,300.79a11.63,11.63,0,0,1-4.2-.78,11.81,11.81,0,0,1-6.79-15.23l51.9-135.38a11.86,11.86,0,0,1,11-7.57,11.57,11.57,0,0,1,4.22.79,11.76,11.76,0,0,1,7.49,9.69v.09c.09,1.38.07,101.23.07,102.24a21.29,21.29,0,0,1-.66,5.89,11.85,11.85,0,0,1-3.92,5.18l-.1.07L439.6,298.71h0l-.31.19A11.81,11.81,0,0,1,432.87,300.79Z" transform="translate(-56.26 -130.61)"/><path d="M484.79,142.33a11.29,11.29,0,0,1,11.21,10h0v0c.07,1.4.08,67.48.07,102.25a20.28,20.28,0,0,1-.63,5.69,11.25,11.25,0,0,1-3.75,5l-.06.05-52,32.73h0l-.61.39a11.3,11.3,0,0,1-6.14,1.82,11.07,11.07,0,0,1-4-.75,11.28,11.28,0,0,1-6.5-14.58l51.9-135.38a11.35,11.35,0,0,1,10.54-7.25m0-1a12.28,12.28,0,0,0-11.47,7.89l-51.9,135.39a12.27,12.27,0,0,0,18.13,14.7h0l52.72-33.19v0a12.15,12.15,0,0,0,4.08-5.41c.77-2,.7-6.06.7-6.06s0-101.47-.07-102.29v-.1h0a12.29,12.29,0,0,0-12.2-10.92Z" transform="translate(-56.26 -130.61)"/><path class="cls-2" d="M555.35,326" transform="translate(-56.26 -130.61)"/><path class="cls-2" d="M426.3,357.11" transform="translate(-56.26 -130.61)"/><path class="cls-2" d="M446.77,387.71" transform="translate(-56.26 -130.61)"/><path class="cls-1" d="M345.13,425.77a5.66,5.66,0,0,1-.82-.06,5.89,5.89,0,0,1-2.6-10.58l64.88-41.48.24-.15a15.86,15.86,0,0,1,8.37-2.4,16.43,16.43,0,0,1,2.42.18,15.91,15.91,0,0,1,3,30.67l-.07,0-74.07,23.64h-.08A5.83,5.83,0,0,1,345.13,425.77Z" transform="translate(-56.26 -130.61)"/><path d="M415.2,371.6a15.41,15.41,0,0,1,5.28,29.88h0l-74,23.63-.08,0a6.27,6.27,0,0,1-1.19.13,4.77,4.77,0,0,1-.76-.06,5.4,5.4,0,0,1-2.4-9.66l64.64-41.33.47-.3a15.39,15.39,0,0,1,8.11-2.32m0-1a16.38,16.38,0,0,0-8.63,2.47h0l-65.14,41.65h0a6.4,6.4,0,0,0,2.81,11.48,5.67,5.67,0,0,0,.91.07,6.61,6.61,0,0,0,1.4-.16v0l74.25-23.7h0a16.41,16.41,0,0,0-5.62-31.82Z" transform="translate(-56.26 -130.61)"/><circle class="cls-2" cx="358.3" cy="256.79" r="5.23"/><path class="cls-3" d="M548.09,317.63v-42.2a6,6,0,1,0-12,0,21,21,0,0,1-9.61,17.64L423.76,357.74a4,4,0,0,0,.87,7.13h0A21.52,21.52,0,0,1,438.81,387a4,4,0,0,0,6,3.78l96.23-60.59a15,15,0,0,0,7-12.69" transform="translate(-56.26 -130.61)"/><line class="cls-4" x1="486.06" y1="130.7" x2="486.06" y2="26.26"/><path class="cls-5" d="M182.05,373a16.28,16.28,0,0,0-2.64,1.74h0l0,0h-.19l0,0h0q-.57.48-1.11,1l2.14,2.11a13.32,13.32,0,0,1,3.26-2.43l-1.4-2.65Zm-5.9,5.29c-.32.48-.62,1-.9,1.49h0l0,.05h0l0,0h0v0h0v0h0v0h0v0h-.47v0h0v0h0v0h0v0h0v0h0v0h0c-.21.5-.39,1-.55,1.53l2.88.86a13.38,13.38,0,0,1,1.75-3.68l-2.49-1.68Zm-2.73,7.43a16.26,16.26,0,0,0,.05,3.94h0v.06h0v.05h0v0h0v0h0v0h0v0h0v0h0v0h0v0h0c0,.2.07.41.11.61l2.94-.58c0-.2-.07-.4-.1-.59a13.53,13.53,0,0,1-.08-3.48l-3-.33Zm3.86,6.74-2.79,1.11h0l0,0h.06v0h0v0h0v0h0l0,.05h0v0h0a16.21,16.21,0,0,0,2.35,3.85l2.32-1.89a13.06,13.06,0,0,1-2.06-3.51Zm3.78,5.25L179.12,400c.23.2.47.39.72.58h0l0,0h0l0,0h0l0,0h0l0,0h0l0,0h0l0,0h0l0,0h3.19l1.17-2.76a13.21,13.21,0,0,1-3.47-2.14Zm6,3-.91,2.86c1.16.37,2.79.88,4.76,1.52l.92-2.86-4.77-1.52Zm7.63,2.43-.92,2.86,3.95,1.26h.05l.77.24.91-2.86-4.76-1.52Zm7.62,2.43-.91,2.86.91.29h0l.1,0,3.09,1,.65.21.91-2.86-4.76-1.52ZM210,408l-.91,2.85,4.52,1.45.24.07.91-2.85L210,408Zm7.62,2.43-.91,2.86,4.76,1.52.91-2.86-4.76-1.52Zm7.62,2.43-.91,2.86.85.27h.12l.86.27h.13l2.8.9.92-2.86-4.77-1.52Zm7.62,2.43-.91,2.86,1.84.59h0l.07,0h.07l2.78.89.91-2.86-4.77-1.52Zm7.63,2.44-.91,2.85,4.27,1.37.49.15.91-2.85-4.76-1.52Zm7.62,2.43-.91,2.86,2.6.83h0l2.15.69.91-2.86-4.76-1.52Zm7.62,2.43-.91,2.86,3.57,1.14h.19a7.2,7.2,0,0,0,1,.12l.1-3a5.23,5.23,0,0,1-.65-.08l-3.34-1.07Zm7.24-1.1a3.51,3.51,0,0,1-1.74,1.93l1.3,2.7a6.38,6.38,0,0,0,3.26-3.62l-2.82-1Zm.73-6.18-1.84,2.37a3.37,3.37,0,0,1,1.26,2.16l0,.09,3-.38v0h0a.51.51,0,0,1,0-.13h0a6.36,6.36,0,0,0-2.1-3.68h-.1l0,0h-.13ZM256.94,411l-1.61,2.53,4.21,2.69,1.61-2.53L256.94,411Zm-6.74-4.31-1.61,2.53,4.21,2.69,1.61-2.53-3.36-2.15H251l-.8-.51Zm-6.74-4.31-1.61,2.53,4.21,2.69,1.61-2.53h0l0,0h0l-4.16-2.66ZM236.72,398l-1.61,2.53,4.21,2.69,1.61-2.53L236.72,398ZM230,393.73l-1.61,2.53,4.21,2.69,1.61-2.53-3.08-2h0l0,0h0l-1.06-.68Zm-6.74-4.31L221.63,392l4.21,2.69,1.61-2.53-3.06-1.95h0l-.06,0h-.1l0,0h0l-.94-.6Zm-6.74-4.31-1.61,2.53,4.21,2.69,1.61-2.52-.21-.14h-.06l-.11-.07h0l-3.82-2.45Zm-6.74-4.31-1.61,2.53,4.21,2.69L214,383.5,210.11,381h0l-.31-.2ZM203,376.49,201.41,379l4.21,2.69,1.62-2.52-4.22-2.7Zm-6.84-4.11L195,375.14a12.32,12.32,0,0,1,1.8.94l.39.24,1.7,1.08,0,0,.7.44,1.32-2.67-2.49-1.59h0l-.05,0h-.07l0,0h0c-.42-.25-.85-.49-1.29-.71h0l-.06,0h-.11l-.59-.27Zm-6.44-1.33a16.63,16.63,0,0,0-2.42.18h-.21a17.12,17.12,0,0,0-2.3.54l.9,2.87a13.08,13.08,0,0,1,2-.46,12.75,12.75,0,0,1,2-.16h0a13.16,13.16,0,0,1,2.93.33l.66-2.93a16.72,16.72,0,0,0-3.48-.4h-.11Z" transform="translate(-56.26 -130.61)"/><circle class="cls-2" cx="134.13" cy="257.25" r="5.23"/><circle class="cls-6" cx="486.06" cy="16.08" r="3.31"/><circle class="cls-6" cx="6.27" cy="16.67" r="3.31"/><path class="cls-7" d="M271.79,369.51a83.29,83.29,0,0,1-2.86,41.08" transform="translate(-56.26 -130.61)"/><polygon points="209.54 246.16 215.98 241.34 223.92 242.63 212.54 227.34 209.54 246.16"/><path class="cls-1" d="M189.71,403.48A15.9,15.9,0,0,1,184,372.74l.48-.18L256.56,346a6.05,6.05,0,0,1,1.66-.24,5.91,5.91,0,0,1,5.18,8.71,6,6,0,0,1-1.35,1.64l-.08.07L198.4,400.91l0,0A16,16,0,0,1,189.71,403.48Z" transform="translate(-56.26 -130.61)"/><path d="M258.22,346.23a5.36,5.36,0,0,1,3.5,9.47l-.05.05-63.54,44.73,0,0a15.42,15.42,0,0,1-15.7.6,15.39,15.39,0,0,1,1.82-27.91l.34-.14,72.16-26.62a5.51,5.51,0,0,1,1.51-.22m0-1a6.64,6.64,0,0,0-1.83.27h0l-72.55,26.77h0a16.23,16.23,0,0,0-8.54,7.48,16.41,16.41,0,0,0,23.32,21.6h0l0,0c.1-.06,63.73-44.87,63.73-44.87h0A6.33,6.33,0,0,0,261.26,346a6.31,6.31,0,0,0-3-.78Z" transform="translate(-56.26 -130.61)"/><circle class="cls-2" cx="134.19" cy="256.69" r="5.23"/><line class="cls-8" x1="412.54" y1="2" x2="78.81" y2="2"/></svg>